G04 #@! TF.GenerationSoftware,KiCad,Pcbnew,8.0.2-1*
G04 #@! TF.CreationDate,2024-09-12T16:13:46+03:00*
G04 #@! TF.ProjectId,pcb,7063622e-6b69-4636-9164-5f7063625858,rev?*
G04 #@! TF.SameCoordinates,Original*
G04 #@! TF.FileFunction,Legend,Top*
G04 #@! TF.FilePolarity,Positive*
%FSLAX46Y46*%
G04 Gerber Fmt 4.6, Leading zero omitted, Abs format (unit mm)*
G04 Created by KiCad (PCBNEW 8.0.2-1) date 2024-09-12 16:13:46*
%MOMM*%
%LPD*%
G01*
G04 APERTURE LIST*
G04 Aperture macros list*
%AMRoundRect*
0 Rectangle with rounded corners*
0 $1 Rounding radius*
0 $2 $3 $4 $5 $6 $7 $8 $9 X,Y pos of 4 corners*
0 Add a 4 corners polygon primitive as box body*
4,1,4,$2,$3,$4,$5,$6,$7,$8,$9,$2,$3,0*
0 Add four circle primitives for the rounded corners*
1,1,$1+$1,$2,$3*
1,1,$1+$1,$4,$5*
1,1,$1+$1,$6,$7*
1,1,$1+$1,$8,$9*
0 Add four rect primitives between the rounded corners*
20,1,$1+$1,$2,$3,$4,$5,0*
20,1,$1+$1,$4,$5,$6,$7,0*
20,1,$1+$1,$6,$7,$8,$9,0*
20,1,$1+$1,$8,$9,$2,$3,0*%
%AMRotRect*
0 Rectangle, with rotation*
0 The origin of the aperture is its center*
0 $1 length*
0 $2 width*
0 $3 Rotation angle, in degrees counterclockwise*
0 Add horizontal line*
21,1,$1,$2,0,0,$3*%
%AMOutline5P*
0 Free polygon, 5 corners , with rotation*
0 The origin of the aperture is its center*
0 number of corners: always 5*
0 $1 to $10 corner X, Y*
0 $11 Rotation angle, in degrees counterclockwise*
0 create outline with 5 corners*
4,1,5,$1,$2,$3,$4,$5,$6,$7,$8,$9,$10,$1,$2,$11*%
%AMOutline6P*
0 Free polygon, 6 corners , with rotation*
0 The origin of the aperture is its center*
0 number of corners: always 6*
0 $1 to $12 corner X, Y*
0 $13 Rotation angle, in degrees counterclockwise*
0 create outline with 6 corners*
4,1,6,$1,$2,$3,$4,$5,$6,$7,$8,$9,$10,$11,$12,$1,$2,$13*%
%AMOutline7P*
0 Free polygon, 7 corners , with rotation*
0 The origin of the aperture is its center*
0 number of corners: always 7*
0 $1 to $14 corner X, Y*
0 $15 Rotation angle, in degrees counterclockwise*
0 create outline with 7 corners*
4,1,7,$1,$2,$3,$4,$5,$6,$7,$8,$9,$10,$11,$12,$13,$14,$1,$2,$15*%
%AMOutline8P*
0 Free polygon, 8 corners , with rotation*
0 The origin of the aperture is its center*
0 number of corners: always 8*
0 $1 to $16 corner X, Y*
0 $17 Rotation angle, in degrees counterclockwise*
0 create outline with 8 corners*
4,1,8,$1,$2,$3,$4,$5,$6,$7,$8,$9,$10,$11,$12,$13,$14,$15,$16,$1,$2,$17*%
G04 Aperture macros list end*
%ADD10C,0.187500*%
%ADD11C,0.150000*%
%ADD12C,0.200000*%
%ADD13C,0.120000*%
%ADD14C,4.200000*%
%ADD15C,2.000000*%
%ADD16RoundRect,0.500000X-0.500000X0.500000X-0.500000X-0.500000X0.500000X-0.500000X0.500000X0.500000X0*%
%ADD17R,1.000000X0.800000*%
%ADD18C,0.900000*%
%ADD19R,0.700000X1.280000*%
%ADD20Outline5P,-0.350000X0.640000X0.350000X0.640000X0.350000X-0.360000X0.070000X-0.640000X-0.350000X-0.640000X180.000000*%
%ADD21RoundRect,0.150000X-0.625000X0.150000X-0.625000X-0.150000X0.625000X-0.150000X0.625000X0.150000X0*%
%ADD22RoundRect,0.250000X-0.650000X0.350000X-0.650000X-0.350000X0.650000X-0.350000X0.650000X0.350000X0*%
%ADD23RotRect,1.425000X1.300000X322.000000*%
%ADD24RotRect,1.425000X1.300000X341.000000*%
%ADD25R,1.425000X1.300000*%
%ADD26C,3.000000*%
%ADD27C,5.100000*%
%ADD28R,2.000000X2.500000*%
%ADD29O,2.750000X1.800000*%
%ADD30C,1.600000*%
%ADD31RotRect,2.000000X2.500000X322.000000*%
%ADD32RotRect,2.000000X2.500000X341.000000*%
G04 APERTURE END LIST*
D10*
X123209069Y-115783362D02*
X123137640Y-115711934D01*
X123137640Y-115711934D02*
X122994783Y-115640505D01*
X122994783Y-115640505D02*
X122851926Y-115640505D01*
X122851926Y-115640505D02*
X122709069Y-115711934D01*
X122709069Y-115711934D02*
X122637640Y-115783362D01*
X122637640Y-115783362D02*
X122566212Y-115926220D01*
X122566212Y-115926220D02*
X122566212Y-116069077D01*
X122566212Y-116069077D02*
X122637640Y-116211934D01*
X122637640Y-116211934D02*
X122709069Y-116283362D01*
X122709069Y-116283362D02*
X122851926Y-116354791D01*
X122851926Y-116354791D02*
X122994783Y-116354791D01*
X122994783Y-116354791D02*
X123137640Y-116283362D01*
X123137640Y-116283362D02*
X123209069Y-116211934D01*
X123209069Y-115640505D02*
X123209069Y-116211934D01*
X123209069Y-116211934D02*
X123280497Y-116283362D01*
X123280497Y-116283362D02*
X123351926Y-116283362D01*
X123351926Y-116283362D02*
X123494783Y-116211934D01*
X123494783Y-116211934D02*
X123566212Y-116069077D01*
X123566212Y-116069077D02*
X123566212Y-115711934D01*
X123566212Y-115711934D02*
X123423355Y-115497648D01*
X123423355Y-115497648D02*
X123209069Y-115354791D01*
X123209069Y-115354791D02*
X122923355Y-115283362D01*
X122923355Y-115283362D02*
X122637640Y-115354791D01*
X122637640Y-115354791D02*
X122423355Y-115497648D01*
X122423355Y-115497648D02*
X122280497Y-115711934D01*
X122280497Y-115711934D02*
X122209069Y-115997648D01*
X122209069Y-115997648D02*
X122280497Y-116283362D01*
X122280497Y-116283362D02*
X122423355Y-116497648D01*
X122423355Y-116497648D02*
X122637640Y-116640505D01*
X122637640Y-116640505D02*
X122923355Y-116711934D01*
X122923355Y-116711934D02*
X123209069Y-116640505D01*
X123209069Y-116640505D02*
X123423355Y-116497648D01*
X123994783Y-115497648D02*
X124566211Y-115497648D01*
X124209068Y-114997648D02*
X124209068Y-116283362D01*
X124209068Y-116283362D02*
X124280497Y-116426220D01*
X124280497Y-116426220D02*
X124423354Y-116497648D01*
X124423354Y-116497648D02*
X124566211Y-116497648D01*
X125280497Y-116497648D02*
X125137640Y-116426220D01*
X125137640Y-116426220D02*
X125066211Y-116354791D01*
X125066211Y-116354791D02*
X124994783Y-116211934D01*
X124994783Y-116211934D02*
X124994783Y-115783362D01*
X124994783Y-115783362D02*
X125066211Y-115640505D01*
X125066211Y-115640505D02*
X125137640Y-115569077D01*
X125137640Y-115569077D02*
X125280497Y-115497648D01*
X125280497Y-115497648D02*
X125494783Y-115497648D01*
X125494783Y-115497648D02*
X125637640Y-115569077D01*
X125637640Y-115569077D02*
X125709069Y-115640505D01*
X125709069Y-115640505D02*
X125780497Y-115783362D01*
X125780497Y-115783362D02*
X125780497Y-116211934D01*
X125780497Y-116211934D02*
X125709069Y-116354791D01*
X125709069Y-116354791D02*
X125637640Y-116426220D01*
X125637640Y-116426220D02*
X125494783Y-116497648D01*
X125494783Y-116497648D02*
X125280497Y-116497648D01*
X126423354Y-116497648D02*
X126423354Y-115497648D01*
X126423354Y-115783362D02*
X126494783Y-115640505D01*
X126494783Y-115640505D02*
X126566212Y-115569077D01*
X126566212Y-115569077D02*
X126709069Y-115497648D01*
X126709069Y-115497648D02*
X126851926Y-115497648D01*
X127994783Y-116497648D02*
X127994783Y-115711934D01*
X127994783Y-115711934D02*
X127923354Y-115569077D01*
X127923354Y-115569077D02*
X127780497Y-115497648D01*
X127780497Y-115497648D02*
X127494783Y-115497648D01*
X127494783Y-115497648D02*
X127351925Y-115569077D01*
X127994783Y-116426220D02*
X127851925Y-116497648D01*
X127851925Y-116497648D02*
X127494783Y-116497648D01*
X127494783Y-116497648D02*
X127351925Y-116426220D01*
X127351925Y-116426220D02*
X127280497Y-116283362D01*
X127280497Y-116283362D02*
X127280497Y-116140505D01*
X127280497Y-116140505D02*
X127351925Y-115997648D01*
X127351925Y-115997648D02*
X127494783Y-115926220D01*
X127494783Y-115926220D02*
X127851925Y-115926220D01*
X127851925Y-115926220D02*
X127994783Y-115854791D01*
X128709068Y-116497648D02*
X128709068Y-114997648D01*
X128709068Y-115569077D02*
X128851926Y-115497648D01*
X128851926Y-115497648D02*
X129137640Y-115497648D01*
X129137640Y-115497648D02*
X129280497Y-115569077D01*
X129280497Y-115569077D02*
X129351926Y-115640505D01*
X129351926Y-115640505D02*
X129423354Y-115783362D01*
X129423354Y-115783362D02*
X129423354Y-116211934D01*
X129423354Y-116211934D02*
X129351926Y-116354791D01*
X129351926Y-116354791D02*
X129280497Y-116426220D01*
X129280497Y-116426220D02*
X129137640Y-116497648D01*
X129137640Y-116497648D02*
X128851926Y-116497648D01*
X128851926Y-116497648D02*
X128709068Y-116426220D01*
X130066211Y-116497648D02*
X130066211Y-115497648D01*
X130066211Y-115783362D02*
X130137640Y-115640505D01*
X130137640Y-115640505D02*
X130209069Y-115569077D01*
X130209069Y-115569077D02*
X130351926Y-115497648D01*
X130351926Y-115497648D02*
X130494783Y-115497648D01*
X131637640Y-116497648D02*
X131637640Y-115711934D01*
X131637640Y-115711934D02*
X131566211Y-115569077D01*
X131566211Y-115569077D02*
X131423354Y-115497648D01*
X131423354Y-115497648D02*
X131137640Y-115497648D01*
X131137640Y-115497648D02*
X130994782Y-115569077D01*
X131637640Y-116426220D02*
X131494782Y-116497648D01*
X131494782Y-116497648D02*
X131137640Y-116497648D01*
X131137640Y-116497648D02*
X130994782Y-116426220D01*
X130994782Y-116426220D02*
X130923354Y-116283362D01*
X130923354Y-116283362D02*
X130923354Y-116140505D01*
X130923354Y-116140505D02*
X130994782Y-115997648D01*
X130994782Y-115997648D02*
X131137640Y-115926220D01*
X131137640Y-115926220D02*
X131494782Y-115926220D01*
X131494782Y-115926220D02*
X131637640Y-115854791D01*
X132209068Y-115497648D02*
X132566211Y-116497648D01*
X132566211Y-116497648D02*
X132923354Y-115497648D01*
X133709068Y-116497648D02*
X133566211Y-116426220D01*
X133566211Y-116426220D02*
X133494782Y-116354791D01*
X133494782Y-116354791D02*
X133423354Y-116211934D01*
X133423354Y-116211934D02*
X133423354Y-115783362D01*
X133423354Y-115783362D02*
X133494782Y-115640505D01*
X133494782Y-115640505D02*
X133566211Y-115569077D01*
X133566211Y-115569077D02*
X133709068Y-115497648D01*
X133709068Y-115497648D02*
X133923354Y-115497648D01*
X133923354Y-115497648D02*
X134066211Y-115569077D01*
X134066211Y-115569077D02*
X134137640Y-115640505D01*
X134137640Y-115640505D02*
X134209068Y-115783362D01*
X134209068Y-115783362D02*
X134209068Y-116211934D01*
X134209068Y-116211934D02*
X134137640Y-116354791D01*
X134137640Y-116354791D02*
X134066211Y-116426220D01*
X134066211Y-116426220D02*
X133923354Y-116497648D01*
X133923354Y-116497648D02*
X133709068Y-116497648D01*
X135923354Y-115140505D02*
X135994782Y-115069077D01*
X135994782Y-115069077D02*
X136137640Y-114997648D01*
X136137640Y-114997648D02*
X136494782Y-114997648D01*
X136494782Y-114997648D02*
X136637640Y-115069077D01*
X136637640Y-115069077D02*
X136709068Y-115140505D01*
X136709068Y-115140505D02*
X136780497Y-115283362D01*
X136780497Y-115283362D02*
X136780497Y-115426220D01*
X136780497Y-115426220D02*
X136709068Y-115640505D01*
X136709068Y-115640505D02*
X135851925Y-116497648D01*
X135851925Y-116497648D02*
X136780497Y-116497648D01*
X137709068Y-114997648D02*
X137851925Y-114997648D01*
X137851925Y-114997648D02*
X137994782Y-115069077D01*
X137994782Y-115069077D02*
X138066211Y-115140505D01*
X138066211Y-115140505D02*
X138137639Y-115283362D01*
X138137639Y-115283362D02*
X138209068Y-115569077D01*
X138209068Y-115569077D02*
X138209068Y-115926220D01*
X138209068Y-115926220D02*
X138137639Y-116211934D01*
X138137639Y-116211934D02*
X138066211Y-116354791D01*
X138066211Y-116354791D02*
X137994782Y-116426220D01*
X137994782Y-116426220D02*
X137851925Y-116497648D01*
X137851925Y-116497648D02*
X137709068Y-116497648D01*
X137709068Y-116497648D02*
X137566211Y-116426220D01*
X137566211Y-116426220D02*
X137494782Y-116354791D01*
X137494782Y-116354791D02*
X137423353Y-116211934D01*
X137423353Y-116211934D02*
X137351925Y-115926220D01*
X137351925Y-115926220D02*
X137351925Y-115569077D01*
X137351925Y-115569077D02*
X137423353Y-115283362D01*
X137423353Y-115283362D02*
X137494782Y-115140505D01*
X137494782Y-115140505D02*
X137566211Y-115069077D01*
X137566211Y-115069077D02*
X137709068Y-114997648D01*
X138780496Y-115140505D02*
X138851924Y-115069077D01*
X138851924Y-115069077D02*
X138994782Y-114997648D01*
X138994782Y-114997648D02*
X139351924Y-114997648D01*
X139351924Y-114997648D02*
X139494782Y-115069077D01*
X139494782Y-115069077D02*
X139566210Y-115140505D01*
X139566210Y-115140505D02*
X139637639Y-115283362D01*
X139637639Y-115283362D02*
X139637639Y-115426220D01*
X139637639Y-115426220D02*
X139566210Y-115640505D01*
X139566210Y-115640505D02*
X138709067Y-116497648D01*
X138709067Y-116497648D02*
X139637639Y-116497648D01*
X140923353Y-115497648D02*
X140923353Y-116497648D01*
X140566210Y-114926220D02*
X140209067Y-115997648D01*
X140209067Y-115997648D02*
X141137638Y-115997648D01*
D11*
X202130952Y-59840865D02*
X202321428Y-59840865D01*
X202321428Y-59840865D02*
X202416666Y-59888484D01*
X202416666Y-59888484D02*
X202511904Y-59983722D01*
X202511904Y-59983722D02*
X202559523Y-60174198D01*
X202559523Y-60174198D02*
X202559523Y-60507531D01*
X202559523Y-60507531D02*
X202511904Y-60698007D01*
X202511904Y-60698007D02*
X202416666Y-60793246D01*
X202416666Y-60793246D02*
X202321428Y-60840865D01*
X202321428Y-60840865D02*
X202130952Y-60840865D01*
X202130952Y-60840865D02*
X202035714Y-60793246D01*
X202035714Y-60793246D02*
X201940476Y-60698007D01*
X201940476Y-60698007D02*
X201892857Y-60507531D01*
X201892857Y-60507531D02*
X201892857Y-60174198D01*
X201892857Y-60174198D02*
X201940476Y-59983722D01*
X201940476Y-59983722D02*
X202035714Y-59888484D01*
X202035714Y-59888484D02*
X202130952Y-59840865D01*
X202988095Y-60840865D02*
X202988095Y-59840865D01*
X202988095Y-59840865D02*
X203559523Y-60840865D01*
X203559523Y-60840865D02*
X203559523Y-59840865D01*
X197297619Y-59840865D02*
X197488095Y-59840865D01*
X197488095Y-59840865D02*
X197583333Y-59888484D01*
X197583333Y-59888484D02*
X197678571Y-59983722D01*
X197678571Y-59983722D02*
X197726190Y-60174198D01*
X197726190Y-60174198D02*
X197726190Y-60507531D01*
X197726190Y-60507531D02*
X197678571Y-60698007D01*
X197678571Y-60698007D02*
X197583333Y-60793246D01*
X197583333Y-60793246D02*
X197488095Y-60840865D01*
X197488095Y-60840865D02*
X197297619Y-60840865D01*
X197297619Y-60840865D02*
X197202381Y-60793246D01*
X197202381Y-60793246D02*
X197107143Y-60698007D01*
X197107143Y-60698007D02*
X197059524Y-60507531D01*
X197059524Y-60507531D02*
X197059524Y-60174198D01*
X197059524Y-60174198D02*
X197107143Y-59983722D01*
X197107143Y-59983722D02*
X197202381Y-59888484D01*
X197202381Y-59888484D02*
X197297619Y-59840865D01*
X198488095Y-60317055D02*
X198154762Y-60317055D01*
X198154762Y-60840865D02*
X198154762Y-59840865D01*
X198154762Y-59840865D02*
X198630952Y-59840865D01*
X199345238Y-60317055D02*
X199011905Y-60317055D01*
X199011905Y-60840865D02*
X199011905Y-59840865D01*
X199011905Y-59840865D02*
X199488095Y-59840865D01*
D12*
X201135000Y-78115970D02*
X199865000Y-78115970D01*
X200500000Y-78750970D02*
X200500000Y-77480970D01*
X192135000Y-78115970D02*
X190865000Y-78115970D01*
D13*
X206285000Y-78005970D02*
X206285000Y-79055970D01*
X203785000Y-78005970D02*
X206285000Y-78005970D01*
D12*
X207000000Y-78115970D02*
X207000000Y-78915970D01*
X207400000Y-78515970D02*
X206600000Y-78515970D01*
D13*
X201815000Y-79175970D02*
X201815000Y-81055970D01*
D12*
X207000000Y-81315970D02*
X207000000Y-82115970D01*
D13*
X206285000Y-82225970D02*
X206285000Y-81175970D01*
X203785000Y-82225970D02*
X206285000Y-82225970D01*
D12*
X205494744Y-132043301D02*
X206110405Y-131255290D01*
X204706733Y-131427640D02*
X205723773Y-131587730D01*
X205723773Y-131587730D02*
X205322394Y-130639629D01*
X204706733Y-131427640D02*
X205322394Y-130639629D01*
X184619861Y-120544560D02*
X184945429Y-119599042D01*
X183674343Y-120218992D02*
X184688093Y-120039244D01*
X184688093Y-120039244D02*
X183999911Y-119273474D01*
X183674343Y-120218992D02*
X183999911Y-119273474D01*
X179962500Y-97240970D02*
X179962500Y-96240970D01*
X178962500Y-97240970D02*
X179862500Y-96740970D01*
X179862500Y-96740970D02*
X178962500Y-96240970D01*
X178962500Y-97240970D02*
X178962500Y-96240970D01*
X160962500Y-116240970D02*
X160962500Y-115240970D01*
X159962500Y-116240970D02*
X160862500Y-115740970D01*
X160862500Y-115740970D02*
X159962500Y-115240970D01*
X159962500Y-116240970D02*
X159962500Y-115240970D01*
X104000000Y-69990970D02*
X104000000Y-68990970D01*
X103000000Y-69990970D02*
X103900000Y-69490970D01*
X103900000Y-69490970D02*
X103000000Y-68990970D01*
X103000000Y-69990970D02*
X103000000Y-68990970D01*
X103962500Y-88990970D02*
X103962500Y-87990970D01*
X102962500Y-88990970D02*
X103862500Y-88490970D01*
X103862500Y-88490970D02*
X102962500Y-87990970D01*
X102962500Y-88990970D02*
X102962500Y-87990970D01*
X161000000Y-95240970D02*
X161000000Y-94240970D01*
X160000000Y-95240970D02*
X160900000Y-94740970D01*
X160900000Y-94740970D02*
X160000000Y-94240970D01*
X160000000Y-95240970D02*
X160000000Y-94240970D01*
X179962500Y-59240970D02*
X179962500Y-58240970D01*
X178962500Y-59240970D02*
X179862500Y-58740970D01*
X179862500Y-58740970D02*
X178962500Y-58240970D01*
X178962500Y-59240970D02*
X178962500Y-58240970D01*
X85000000Y-88990970D02*
X85000000Y-87990970D01*
X84000000Y-88990970D02*
X84900000Y-88490970D01*
X84900000Y-88490970D02*
X84000000Y-87990970D01*
X84000000Y-88990970D02*
X84000000Y-87990970D01*
X179962500Y-78240970D02*
X179962500Y-77240970D01*
X178962500Y-78240970D02*
X179862500Y-77740970D01*
X179862500Y-77740970D02*
X178962500Y-77240970D01*
X178962500Y-78240970D02*
X178962500Y-77240970D01*
X141962500Y-52240970D02*
X141962500Y-51240970D01*
X140962500Y-52240970D02*
X141862500Y-51740970D01*
X141862500Y-51740970D02*
X140962500Y-51240970D01*
X140962500Y-52240970D02*
X140962500Y-51240970D01*
X142212500Y-71365970D02*
X142212500Y-70365970D01*
X141212500Y-71365970D02*
X142112500Y-70865970D01*
X142112500Y-70865970D02*
X141212500Y-70365970D01*
X141212500Y-71365970D02*
X141212500Y-70365970D01*
X160962500Y-57240970D02*
X160962500Y-56240970D01*
X159962500Y-57240970D02*
X160862500Y-56740970D01*
X160862500Y-56740970D02*
X159962500Y-56240970D01*
X159962500Y-57240970D02*
X159962500Y-56240970D01*
X123000000Y-57240970D02*
X123000000Y-56240970D01*
X122000000Y-57240970D02*
X122900000Y-56740970D01*
X122900000Y-56740970D02*
X122000000Y-56240970D01*
X122000000Y-57240970D02*
X122000000Y-56240970D01*
X84962500Y-107990970D02*
X84962500Y-106990970D01*
X83962500Y-107990970D02*
X84862500Y-107490970D01*
X84862500Y-107490970D02*
X83962500Y-106990970D01*
X83962500Y-107990970D02*
X83962500Y-106990970D01*
X160962500Y-76240970D02*
X160962500Y-75240970D01*
X159962500Y-76240970D02*
X160862500Y-75740970D01*
X160862500Y-75740970D02*
X159962500Y-75240970D01*
X159962500Y-76240970D02*
X159962500Y-75240970D01*
X123037500Y-76240970D02*
X123037500Y-75240970D01*
X122037500Y-76240970D02*
X122937500Y-75740970D01*
X122937500Y-75740970D02*
X122037500Y-75240970D01*
X122037500Y-76240970D02*
X122037500Y-75240970D01*
X123000000Y-95240970D02*
X123000000Y-94240970D01*
X122000000Y-95240970D02*
X122900000Y-94740970D01*
X122900000Y-94740970D02*
X122000000Y-94240970D01*
X122000000Y-95240970D02*
X122000000Y-94240970D01*
X104287500Y-107990970D02*
X104287500Y-106990970D01*
X103287500Y-107990970D02*
X104187500Y-107490970D01*
X104187500Y-107490970D02*
X103287500Y-106990970D01*
X103287500Y-107990970D02*
X103287500Y-106990970D01*
X84900000Y-69990970D02*
X84900000Y-68990970D01*
X83900000Y-69990970D02*
X84800000Y-69490970D01*
X84800000Y-69490970D02*
X83900000Y-68990970D01*
X83900000Y-69990970D02*
X83900000Y-68990970D01*
X142000000Y-90365970D02*
X142000000Y-89365970D01*
X141000000Y-90365970D02*
X141900000Y-89865970D01*
X141900000Y-89865970D02*
X141000000Y-89365970D01*
X141000000Y-90365970D02*
X141000000Y-89365970D01*
%LPC*%
D14*
X141500000Y-67000000D03*
X141500000Y-112000000D03*
D15*
X198000000Y-78115970D03*
D16*
X194000000Y-78115970D03*
D17*
X204150000Y-55776046D03*
X204150000Y-57996046D03*
D18*
X202000000Y-56886046D03*
X199000000Y-56886046D03*
D17*
X196850000Y-55776046D03*
X196850000Y-57996046D03*
D19*
X202750000Y-58756046D03*
D20*
X199750000Y-58756046D03*
D19*
X198250000Y-58756046D03*
D21*
X206500000Y-79615970D03*
X206500000Y-80615970D03*
D22*
X202625000Y-78315970D03*
X202625000Y-81915970D03*
D23*
X206817138Y-132441960D03*
X204000000Y-130240970D03*
D24*
X186000000Y-120490970D03*
X182619772Y-119327064D03*
D25*
X181250000Y-96740970D03*
X177675000Y-96740970D03*
X162250000Y-115740970D03*
X158675000Y-115740970D03*
X105287500Y-69490970D03*
X101712500Y-69490970D03*
X105250000Y-88490970D03*
X101675000Y-88490970D03*
X162287500Y-94740970D03*
X158712500Y-94740970D03*
X181250000Y-58740970D03*
X177675000Y-58740970D03*
X86287500Y-88490970D03*
X82712500Y-88490970D03*
X181250000Y-77740970D03*
X177675000Y-77740970D03*
X143250000Y-51740970D03*
X139675000Y-51740970D03*
X143500000Y-70865970D03*
X139925000Y-70865970D03*
X162250000Y-56740970D03*
X158675000Y-56740970D03*
X124287500Y-56740970D03*
X120712500Y-56740970D03*
X86250000Y-107490970D03*
X82675000Y-107490970D03*
X162250000Y-75740970D03*
X158675000Y-75740970D03*
X124325000Y-75740970D03*
X120750000Y-75740970D03*
X124287500Y-94740970D03*
X120712500Y-94740970D03*
X105575000Y-107490970D03*
X102000000Y-107490970D03*
X86187500Y-69490970D03*
X82612500Y-69490970D03*
X143287500Y-89865970D03*
X139712500Y-89865970D03*
D26*
X80100000Y-80200000D03*
X81900000Y-81250000D03*
D27*
X84500000Y-75500000D03*
D26*
X87100000Y-81250000D03*
X88900000Y-80200000D03*
D28*
X78300000Y-81250000D03*
X92500000Y-80200000D03*
D26*
X118100000Y-67200000D03*
X119900000Y-68250000D03*
D27*
X122500000Y-62500000D03*
D26*
X125100000Y-68250000D03*
X126900000Y-67200000D03*
D28*
X116300000Y-68250000D03*
X130500000Y-67200000D03*
D26*
X118100000Y-86200000D03*
X119900000Y-87250000D03*
D27*
X122500000Y-81500000D03*
D26*
X125100000Y-87250000D03*
X126900000Y-86200000D03*
D28*
X116300000Y-87250000D03*
X130500000Y-86200000D03*
D14*
X94000000Y-112000000D03*
X94000000Y-72000000D03*
D26*
X99100000Y-80200000D03*
X100900000Y-81250000D03*
D27*
X103500000Y-75500000D03*
D26*
X106100000Y-81250000D03*
X107900000Y-80200000D03*
D28*
X97300000Y-81250000D03*
X111500000Y-80200000D03*
D14*
X197400000Y-121090970D03*
D26*
X80100000Y-99190970D03*
X81900000Y-100240970D03*
D27*
X84500000Y-94490970D03*
D26*
X87100000Y-100240970D03*
X88900000Y-99190970D03*
D28*
X78300000Y-100240970D03*
X92500000Y-99190970D03*
D29*
X192405040Y-58496046D03*
X192405040Y-61036046D03*
X192405040Y-63576046D03*
X192405040Y-66116046D03*
X192405040Y-68656046D03*
X192405040Y-71196046D03*
X192405040Y-73736046D03*
X208594960Y-73736046D03*
X208594960Y-71196046D03*
X208594960Y-68656046D03*
X208594960Y-66116046D03*
X208594960Y-63576046D03*
X208594960Y-61036046D03*
X208594960Y-58496046D03*
D30*
X196055000Y-65799046D03*
X204945000Y-65799046D03*
X196055000Y-63894046D03*
X204945000Y-63894046D03*
D28*
X187500000Y-69200000D03*
X173300000Y-70250000D03*
D26*
X183900000Y-69200000D03*
X182100000Y-70250000D03*
D27*
X179500000Y-64500000D03*
D26*
X176900000Y-70250000D03*
X175100000Y-69200000D03*
X156100000Y-105200000D03*
X157900000Y-106250000D03*
D27*
X160500000Y-100500000D03*
D26*
X163100000Y-106250000D03*
X164900000Y-105200000D03*
D28*
X154300000Y-106250000D03*
X168500000Y-105200000D03*
D26*
X156100000Y-86200000D03*
X157900000Y-87250000D03*
D27*
X160500000Y-81500000D03*
D26*
X163100000Y-87250000D03*
X164900000Y-86200000D03*
D28*
X154300000Y-87250000D03*
X168500000Y-86200000D03*
X111500000Y-99190970D03*
X97300000Y-100240970D03*
D26*
X107900000Y-99190970D03*
X106100000Y-100240970D03*
D27*
X103500000Y-94490970D03*
D26*
X100900000Y-100240970D03*
X99100000Y-99190970D03*
D28*
X149500000Y-62190970D03*
X135300000Y-63240970D03*
D26*
X145900000Y-62190970D03*
X144100000Y-63240970D03*
D27*
X141500000Y-57490970D03*
D26*
X138900000Y-63240970D03*
X137100000Y-62190970D03*
D28*
X168500000Y-126190970D03*
X154300000Y-127240970D03*
D26*
X164900000Y-126190970D03*
X163100000Y-127240970D03*
D27*
X160500000Y-121490970D03*
D26*
X157900000Y-127240970D03*
X156100000Y-126190970D03*
X137100000Y-100200000D03*
X138900000Y-101250000D03*
D27*
X141500000Y-95500000D03*
D26*
X144100000Y-101250000D03*
X145900000Y-100200000D03*
D28*
X135300000Y-101250000D03*
X149500000Y-100200000D03*
D26*
X99100000Y-118200000D03*
X100900000Y-119250000D03*
D27*
X103500000Y-113500000D03*
D26*
X106100000Y-119250000D03*
X107900000Y-118200000D03*
D28*
X97300000Y-119250000D03*
X111500000Y-118200000D03*
D26*
X80100000Y-118190970D03*
X81900000Y-119240970D03*
D27*
X84500000Y-113490970D03*
D26*
X87100000Y-119240970D03*
X88900000Y-118190970D03*
D28*
X78300000Y-119240970D03*
X92500000Y-118190970D03*
D26*
X137100000Y-81190970D03*
X138900000Y-82240970D03*
D27*
X141500000Y-76490970D03*
D26*
X144100000Y-82240970D03*
X145900000Y-81190970D03*
D28*
X135300000Y-82240970D03*
X149500000Y-81190970D03*
D26*
X175100000Y-88200000D03*
X176900000Y-89250000D03*
D27*
X179500000Y-83500000D03*
D26*
X182100000Y-89250000D03*
X183900000Y-88200000D03*
D28*
X173300000Y-89250000D03*
X187500000Y-88200000D03*
D26*
X118100000Y-105200000D03*
X119900000Y-106250000D03*
D27*
X122500000Y-100500000D03*
D26*
X125100000Y-106250000D03*
X126900000Y-105200000D03*
D28*
X116300000Y-106250000D03*
X130500000Y-105200000D03*
D26*
X195706282Y-136936700D03*
X196478257Y-138872302D03*
D27*
X202067138Y-135941960D03*
D26*
X200575912Y-142073742D03*
X202640777Y-142354521D03*
D31*
X193641417Y-136655921D03*
X205477615Y-144570902D03*
D26*
X176809548Y-128252408D03*
X178169634Y-129831225D03*
D27*
X182500000Y-125240970D03*
D26*
X183086332Y-131524179D03*
X185130111Y-131117407D03*
D32*
X174765768Y-128659179D03*
X188533978Y-132289453D03*
D28*
X187500000Y-107200000D03*
X173300000Y-108250000D03*
D26*
X183900000Y-107200000D03*
X182100000Y-108250000D03*
D27*
X179500000Y-102500000D03*
D26*
X176900000Y-108250000D03*
X175100000Y-107200000D03*
X156100000Y-67200000D03*
X157900000Y-68250000D03*
D27*
X160500000Y-62500000D03*
D26*
X163100000Y-68250000D03*
X164900000Y-67200000D03*
D28*
X154300000Y-68250000D03*
X168500000Y-67200000D03*
D14*
X184400000Y-73890970D03*
%LPD*%
M02*
