%TF.GenerationSoftware,KiCad,Pcbnew,8.0.2-1*%
%TF.CreationDate,2024-09-12T16:14:08+03:00*%
%TF.ProjectId,pcb,7063622e-6b69-4636-9164-5f7063625858,rev?*%
%TF.SameCoordinates,Original*%
%TF.FileFunction,Drillmap*%
%TF.FilePolarity,Positive*%
%FSLAX45Y45*%
G04 Gerber Fmt 4.5, Leading zero omitted, Abs format (unit mm)*
G04 Created by KiCad (PCBNEW 8.0.2-1) date 2024-09-12 16:14:08*
%MOMM*%
%LPD*%
G01*
G04 APERTURE LIST*
%ADD10C,0.100000*%
%ADD11C,0.200000*%
G04 APERTURE END LIST*
D10*
X11360000Y-6569097D02*
G75*
G02*
X11260000Y-6669100I-100000J-3D01*
G01*
X21400000Y-13474665D02*
G75*
G02*
X21378805Y-13536232I-100000J-5D01*
G01*
X16980000Y-5529097D02*
G75*
G02*
X16920003Y-5469097I0J59997D01*
G01*
X15040000Y-12229097D02*
G75*
G02*
X15140003Y-12329097I0J-100003D01*
G01*
X7660000Y-12229097D02*
G75*
G02*
X7560003Y-12129097I0J99997D01*
G01*
X11360000Y-5469097D02*
G75*
G02*
X11460000Y-5369100I100000J-3D01*
G01*
X20461962Y-14709786D02*
G75*
G02*
X20321090Y-14726625I-78802J61566D01*
G01*
X18944191Y-13643547D02*
G75*
G02*
X18973137Y-13659496I-33121J-94353D01*
G01*
X15240000Y-12989097D02*
G75*
G02*
X15140003Y-12889097I0J99997D01*
G01*
X17062957Y-12989097D02*
G75*
G02*
X17096082Y-12994741I3J-100003D01*
G01*
X21300000Y-5529097D02*
G75*
G02*
X21400003Y-5629097I0J-100003D01*
G01*
X7560000Y-6769097D02*
G75*
G02*
X7660000Y-6669100I100000J-3D01*
G01*
X14920000Y-4849097D02*
G75*
G02*
X15020003Y-4949097I0J-100003D01*
G01*
X13280000Y-5269097D02*
G75*
G02*
X13180000Y-5369100I-100000J-3D01*
G01*
X13280000Y-4949097D02*
G75*
G02*
X13380000Y-4849100I100000J-3D01*
G01*
X16820000Y-5349097D02*
G75*
G02*
X16920003Y-5449097I0J-100003D01*
G01*
X15120000Y-5349097D02*
G75*
G02*
X15020003Y-5249097I0J99997D01*
G01*
X18973137Y-13659497D02*
X20321089Y-14726626D01*
X17096081Y-12994742D02*
X18944191Y-13643547D01*
X15240000Y-12989097D02*
X17062957Y-12989097D01*
X15140000Y-12329097D02*
X15140000Y-12889097D01*
X21378802Y-13536230D02*
X20461962Y-14709786D01*
X11240000Y-12229097D02*
X15040000Y-12229097D01*
X7660000Y-12229097D02*
X11240000Y-12229097D01*
X7560000Y-6769097D02*
X7560000Y-12129097D01*
X11260000Y-6669097D02*
X7660000Y-6669097D01*
X11360000Y-5469097D02*
X11360000Y-6569097D01*
X13180000Y-5369097D02*
X11460000Y-5369097D01*
X13280000Y-4949097D02*
X13280000Y-5269097D01*
X14920000Y-4849097D02*
X13380000Y-4849097D01*
X15020000Y-5249097D02*
X15020000Y-4949097D01*
X16820000Y-5349097D02*
X15120000Y-5349097D01*
X16920000Y-5469097D02*
X16920000Y-5449097D01*
X21300000Y-5529097D02*
X16980000Y-5529097D01*
X21400000Y-13474665D02*
X21400000Y-5629097D01*
D11*
X19100000Y-8461597D02*
G75*
G02*
X19200000Y-8361600I100000J-3D01*
G01*
X21000000Y-8461597D02*
X21000000Y-11461597D01*
X19200000Y-8361597D02*
X20900000Y-8361597D01*
X19200000Y-11561597D02*
G75*
G02*
X19100003Y-11461597I0J99997D01*
G01*
X20900000Y-8361597D02*
G75*
G02*
X21000003Y-8461597I0J-100003D01*
G01*
X19100000Y-11461597D02*
X19100000Y-8461597D01*
X20900000Y-11561597D02*
X19200000Y-11561597D01*
X21000000Y-11461597D02*
G75*
G02*
X20900000Y-11561600I-100000J-3D01*
G01*
D10*
X7805000Y-8104097D02*
X7845000Y-8144097D01*
X7845000Y-8104097D02*
X7805000Y-8144097D01*
X7805000Y-10004097D02*
X7845000Y-10044097D01*
X7845000Y-10004097D02*
X7805000Y-10044097D01*
X7805000Y-11904097D02*
X7845000Y-11944097D01*
X7845000Y-11904097D02*
X7805000Y-11944097D01*
X8255000Y-6929097D02*
X8295000Y-6969097D01*
X8295000Y-6929097D02*
X8255000Y-6969097D01*
X8255000Y-8829097D02*
X8295000Y-8869097D01*
X8295000Y-8829097D02*
X8255000Y-8869097D01*
X8255000Y-10729097D02*
X8295000Y-10769097D01*
X8295000Y-10729097D02*
X8255000Y-10769097D01*
X8605000Y-6929097D02*
X8645000Y-6969097D01*
X8645000Y-6929097D02*
X8605000Y-6969097D01*
X8605000Y-8829097D02*
X8645000Y-8869097D01*
X8645000Y-8829097D02*
X8605000Y-8869097D01*
X8605000Y-10729097D02*
X8645000Y-10769097D01*
X8645000Y-10729097D02*
X8605000Y-10769097D01*
X9205000Y-7954097D02*
X9245000Y-7994097D01*
X9245000Y-7954097D02*
X9205000Y-7994097D01*
X9230000Y-9829097D02*
X9270000Y-9869097D01*
X9270000Y-9829097D02*
X9230000Y-9869097D01*
X9230000Y-11779097D02*
X9270000Y-11819097D01*
X9270000Y-11779097D02*
X9230000Y-11819097D01*
X9705000Y-8104097D02*
X9745000Y-8144097D01*
X9745000Y-8104097D02*
X9705000Y-8144097D01*
X9705000Y-10004097D02*
X9745000Y-10044097D01*
X9745000Y-10004097D02*
X9705000Y-10044097D01*
X9705000Y-11904097D02*
X9745000Y-11944097D01*
X9745000Y-11904097D02*
X9705000Y-11944097D01*
X10155000Y-6929097D02*
X10195000Y-6969097D01*
X10195000Y-6929097D02*
X10155000Y-6969097D01*
X10155000Y-8829097D02*
X10195000Y-8869097D01*
X10195000Y-8829097D02*
X10155000Y-8869097D01*
X10180000Y-10729097D02*
X10220000Y-10769097D01*
X10220000Y-10729097D02*
X10180000Y-10769097D01*
X10505000Y-6929097D02*
X10545000Y-6969097D01*
X10545000Y-6929097D02*
X10505000Y-6969097D01*
X10505000Y-8829097D02*
X10545000Y-8869097D01*
X10545000Y-8829097D02*
X10505000Y-8869097D01*
X10530000Y-10729097D02*
X10570000Y-10769097D01*
X10570000Y-10729097D02*
X10530000Y-10769097D01*
X11130000Y-7929097D02*
X11170000Y-7969097D01*
X11170000Y-7929097D02*
X11130000Y-7969097D01*
X11130000Y-9829097D02*
X11170000Y-9869097D01*
X11170000Y-9829097D02*
X11130000Y-9869097D01*
X11130000Y-11779097D02*
X11170000Y-11819097D01*
X11170000Y-11779097D02*
X11130000Y-11819097D01*
X11580000Y-6754097D02*
X11620000Y-6794097D01*
X11620000Y-6754097D02*
X11580000Y-6794097D01*
X11580000Y-8654097D02*
X11620000Y-8694097D01*
X11620000Y-8654097D02*
X11580000Y-8694097D01*
X11580000Y-10579097D02*
X11620000Y-10619097D01*
X11620000Y-10579097D02*
X11580000Y-10619097D01*
X12055000Y-5654097D02*
X12095000Y-5694097D01*
X12095000Y-5654097D02*
X12055000Y-5694097D01*
X12055000Y-7554097D02*
X12095000Y-7594097D01*
X12095000Y-7554097D02*
X12055000Y-7594097D01*
X12055000Y-9454097D02*
X12095000Y-9494097D01*
X12095000Y-9454097D02*
X12055000Y-9494097D01*
X12405000Y-5654097D02*
X12445000Y-5694097D01*
X12445000Y-5654097D02*
X12405000Y-5694097D01*
X12405000Y-7554097D02*
X12445000Y-7594097D01*
X12445000Y-7554097D02*
X12405000Y-7594097D01*
X12405000Y-9454097D02*
X12445000Y-9494097D01*
X12445000Y-9454097D02*
X12405000Y-9494097D01*
X13005000Y-8529097D02*
X13045000Y-8569097D01*
X13045000Y-8529097D02*
X13005000Y-8569097D01*
X13030000Y-6629097D02*
X13070000Y-6669097D01*
X13070000Y-6629097D02*
X13030000Y-6669097D01*
X13030000Y-10429097D02*
X13070000Y-10469097D01*
X13070000Y-10429097D02*
X13030000Y-10469097D01*
X13480000Y-6304097D02*
X13520000Y-6344097D01*
X13520000Y-6304097D02*
X13480000Y-6344097D01*
X13480000Y-8204097D02*
X13520000Y-8244097D01*
X13520000Y-8204097D02*
X13480000Y-8244097D01*
X13480000Y-10104097D02*
X13520000Y-10144097D01*
X13520000Y-10104097D02*
X13480000Y-10144097D01*
X13955000Y-5154097D02*
X13995000Y-5194097D01*
X13995000Y-5154097D02*
X13955000Y-5194097D01*
X13955000Y-8954097D02*
X13995000Y-8994097D01*
X13995000Y-8954097D02*
X13955000Y-8994097D01*
X13980000Y-7054097D02*
X14020000Y-7094097D01*
X14020000Y-7054097D02*
X13980000Y-7094097D01*
X14305000Y-5154097D02*
X14345000Y-5194097D01*
X14345000Y-5154097D02*
X14305000Y-5194097D01*
X14305000Y-8954097D02*
X14345000Y-8994097D01*
X14345000Y-8954097D02*
X14305000Y-8994097D01*
X14330000Y-7054097D02*
X14370000Y-7094097D01*
X14370000Y-7054097D02*
X14330000Y-7094097D01*
X14930000Y-6129097D02*
X14970000Y-6169097D01*
X14970000Y-6129097D02*
X14930000Y-6169097D01*
X14930000Y-8029097D02*
X14970000Y-8069097D01*
X14970000Y-8029097D02*
X14930000Y-8069097D01*
X14930000Y-9929097D02*
X14970000Y-9969097D01*
X14970000Y-9929097D02*
X14930000Y-9969097D01*
X15380000Y-8704097D02*
X15420000Y-8744097D01*
X15420000Y-8704097D02*
X15380000Y-8744097D01*
X15380000Y-10604097D02*
X15420000Y-10644097D01*
X15420000Y-10604097D02*
X15380000Y-10644097D01*
X15380000Y-12729097D02*
X15420000Y-12769097D01*
X15420000Y-12729097D02*
X15380000Y-12769097D01*
X15405000Y-6804097D02*
X15445000Y-6844097D01*
X15445000Y-6804097D02*
X15405000Y-6844097D01*
X15851250Y-9454097D02*
X15891250Y-9494097D01*
X15891250Y-9454097D02*
X15851250Y-9494097D01*
X15855000Y-5654097D02*
X15895000Y-5694097D01*
X15895000Y-5654097D02*
X15855000Y-5694097D01*
X15855000Y-7554097D02*
X15895000Y-7594097D01*
X15895000Y-7554097D02*
X15855000Y-7594097D01*
X15855000Y-11554097D02*
X15895000Y-11594097D01*
X15895000Y-11554097D02*
X15855000Y-11594097D01*
X16205000Y-5654097D02*
X16245000Y-5694097D01*
X16245000Y-5654097D02*
X16205000Y-5694097D01*
X16205000Y-7554097D02*
X16245000Y-7594097D01*
X16245000Y-7554097D02*
X16205000Y-7594097D01*
X16205000Y-11554097D02*
X16245000Y-11594097D01*
X16245000Y-11554097D02*
X16205000Y-11594097D01*
X16208750Y-9454097D02*
X16248750Y-9494097D01*
X16248750Y-9454097D02*
X16208750Y-9494097D01*
X16830000Y-6629097D02*
X16870000Y-6669097D01*
X16870000Y-6629097D02*
X16830000Y-6669097D01*
X16830000Y-8529097D02*
X16870000Y-8569097D01*
X16870000Y-8529097D02*
X16830000Y-8569097D01*
X16830000Y-10429097D02*
X16870000Y-10469097D01*
X16870000Y-10429097D02*
X16830000Y-10469097D01*
X16830000Y-12579097D02*
X16870000Y-12619097D01*
X16870000Y-12579097D02*
X16830000Y-12619097D01*
X17280000Y-8904097D02*
X17320000Y-8944097D01*
X17320000Y-8904097D02*
X17280000Y-8944097D01*
X17280000Y-10804097D02*
X17320000Y-10844097D01*
X17320000Y-10804097D02*
X17280000Y-10844097D01*
X17300000Y-7009097D02*
X17340000Y-7049097D01*
X17340000Y-7009097D02*
X17300000Y-7049097D01*
X17430000Y-12904097D02*
X17470000Y-12944097D01*
X17470000Y-12904097D02*
X17430000Y-12944097D01*
X17755000Y-5854097D02*
X17795000Y-5894097D01*
X17795000Y-5854097D02*
X17755000Y-5894097D01*
X17755000Y-7754097D02*
X17795000Y-7794097D01*
X17795000Y-7754097D02*
X17755000Y-7794097D01*
X17755000Y-9654097D02*
X17795000Y-9694097D01*
X17795000Y-9654097D02*
X17755000Y-9694097D01*
X18105000Y-5854097D02*
X18145000Y-5894097D01*
X18145000Y-5854097D02*
X18105000Y-5894097D01*
X18105000Y-7754097D02*
X18145000Y-7794097D01*
X18145000Y-7754097D02*
X18105000Y-7794097D01*
X18105000Y-9654097D02*
X18145000Y-9694097D01*
X18145000Y-9654097D02*
X18105000Y-9694097D01*
X18230000Y-11904097D02*
X18270000Y-11944097D01*
X18270000Y-11904097D02*
X18230000Y-11944097D01*
X18580000Y-12029097D02*
X18620000Y-12069097D01*
X18620000Y-12029097D02*
X18580000Y-12069097D01*
X18730000Y-6829097D02*
X18770000Y-6869097D01*
X18770000Y-6829097D02*
X18730000Y-6869097D01*
X18730000Y-8729097D02*
X18770000Y-8769097D01*
X18770000Y-8729097D02*
X18730000Y-8769097D01*
X18730000Y-10629097D02*
X18770000Y-10669097D01*
X18770000Y-10629097D02*
X18730000Y-10669097D01*
X18820000Y-9649097D02*
X18860000Y-9689097D01*
X18860000Y-9649097D02*
X18820000Y-9689097D01*
X18880000Y-13154097D02*
X18920000Y-13194097D01*
X18920000Y-13154097D02*
X18880000Y-13194097D01*
X19305000Y-13679097D02*
X19345000Y-13719097D01*
X19345000Y-13679097D02*
X19305000Y-13719097D01*
X19420000Y-6655605D02*
X19460000Y-6695605D01*
X19460000Y-6655605D02*
X19420000Y-6695605D01*
X19500000Y-6896405D02*
X19540000Y-6936405D01*
X19540000Y-6896405D02*
X19500000Y-6936405D01*
X19500000Y-7150405D02*
X19540000Y-7190405D01*
X19540000Y-7150405D02*
X19500000Y-7190405D01*
X19500000Y-7353605D02*
X19540000Y-7393605D01*
X19540000Y-7353605D02*
X19500000Y-7393605D01*
X19780000Y-8191597D02*
X19820000Y-8231597D01*
X19820000Y-8191597D02*
X19780000Y-8231597D01*
X19960200Y-6369405D02*
X20000200Y-6409405D01*
X20000200Y-6369405D02*
X19960200Y-6409405D01*
X19980000Y-7691597D02*
X20020000Y-7731597D01*
X20020000Y-7691597D02*
X19980000Y-7731597D01*
X19980000Y-8041597D02*
X20020000Y-8081597D01*
X20020000Y-8041597D02*
X19980000Y-8081597D01*
X20080000Y-7941597D02*
X20120000Y-7981597D01*
X20120000Y-7941597D02*
X20080000Y-7981597D01*
X20080000Y-8291597D02*
X20120000Y-8331597D01*
X20120000Y-8291597D02*
X20080000Y-8331597D01*
X20105000Y-6032805D02*
X20145000Y-6072805D01*
X20145000Y-6032805D02*
X20105000Y-6072805D01*
X20252300Y-6559905D02*
X20292300Y-6599905D01*
X20292300Y-6559905D02*
X20252300Y-6599905D01*
X20255000Y-6032805D02*
X20295000Y-6072805D01*
X20295000Y-6032805D02*
X20255000Y-6072805D01*
X20380000Y-13004097D02*
X20420000Y-13044097D01*
X20420000Y-13004097D02*
X20380000Y-13044097D01*
X20580000Y-6749097D02*
X20620000Y-6789097D01*
X20620000Y-6749097D02*
X20580000Y-6789097D01*
X20580000Y-6972605D02*
X20620000Y-7012605D01*
X20620000Y-6972605D02*
X20580000Y-7012605D01*
X20580000Y-7226605D02*
X20620000Y-7266605D01*
X20620000Y-7226605D02*
X20580000Y-7266605D01*
X20580000Y-14379097D02*
X20620000Y-14419097D01*
X20620000Y-14379097D02*
X20580000Y-14419097D01*
X20600000Y-5949097D02*
X20640000Y-5989097D01*
X20640000Y-5949097D02*
X20600000Y-5989097D01*
X20600000Y-6069097D02*
X20640000Y-6109097D01*
X20640000Y-6069097D02*
X20600000Y-6109097D01*
X20600000Y-6209097D02*
X20640000Y-6249097D01*
X20640000Y-6209097D02*
X20600000Y-6249097D01*
X20630000Y-7691597D02*
X20670000Y-7731597D01*
X20670000Y-7691597D02*
X20630000Y-7731597D01*
X20630000Y-8291597D02*
X20670000Y-8331597D01*
X20670000Y-8291597D02*
X20630000Y-8331597D01*
X20655000Y-13229097D02*
X20695000Y-13269097D01*
X20695000Y-13229097D02*
X20655000Y-13269097D01*
X19450000Y-7811597D02*
G75*
G02*
X19350000Y-7811597I-50000J0D01*
G01*
X19350000Y-7811597D02*
G75*
G02*
X19450000Y-7811597I50000J0D01*
G01*
X19655500Y-6389405D02*
G75*
G02*
X19555500Y-6389405I-50000J0D01*
G01*
X19555500Y-6389405D02*
G75*
G02*
X19655500Y-6389405I50000J0D01*
G01*
X19655500Y-6579905D02*
G75*
G02*
X19555500Y-6579905I-50000J0D01*
G01*
X19555500Y-6579905D02*
G75*
G02*
X19655500Y-6579905I50000J0D01*
G01*
X19850000Y-7811597D02*
G75*
G02*
X19750000Y-7811597I-50000J0D01*
G01*
X19750000Y-7811597D02*
G75*
G02*
X19850000Y-7811597I50000J0D01*
G01*
X20544500Y-6389405D02*
G75*
G02*
X20444500Y-6389405I-50000J0D01*
G01*
X20444500Y-6389405D02*
G75*
G02*
X20544500Y-6389405I50000J0D01*
G01*
X20544500Y-6579905D02*
G75*
G02*
X20444500Y-6579905I-50000J0D01*
G01*
X20444500Y-6579905D02*
G75*
G02*
X20544500Y-6579905I50000J0D01*
G01*
D11*
X7815777Y-15064704D02*
X7815777Y-14864704D01*
X7815777Y-14864704D02*
X7863396Y-14864704D01*
X7863396Y-14864704D02*
X7891967Y-14874228D01*
X7891967Y-14874228D02*
X7911015Y-14893276D01*
X7911015Y-14893276D02*
X7920539Y-14912323D01*
X7920539Y-14912323D02*
X7930062Y-14950418D01*
X7930062Y-14950418D02*
X7930062Y-14978990D01*
X7930062Y-14978990D02*
X7920539Y-15017085D01*
X7920539Y-15017085D02*
X7911015Y-15036133D01*
X7911015Y-15036133D02*
X7891967Y-15055180D01*
X7891967Y-15055180D02*
X7863396Y-15064704D01*
X7863396Y-15064704D02*
X7815777Y-15064704D01*
X8015777Y-15064704D02*
X8015777Y-14931371D01*
X8015777Y-14969466D02*
X8025301Y-14950418D01*
X8025301Y-14950418D02*
X8034824Y-14940895D01*
X8034824Y-14940895D02*
X8053872Y-14931371D01*
X8053872Y-14931371D02*
X8072920Y-14931371D01*
X8139586Y-15064704D02*
X8139586Y-14931371D01*
X8139586Y-14864704D02*
X8130062Y-14874228D01*
X8130062Y-14874228D02*
X8139586Y-14883752D01*
X8139586Y-14883752D02*
X8149110Y-14874228D01*
X8149110Y-14874228D02*
X8139586Y-14864704D01*
X8139586Y-14864704D02*
X8139586Y-14883752D01*
X8263396Y-15064704D02*
X8244348Y-15055180D01*
X8244348Y-15055180D02*
X8234824Y-15036133D01*
X8234824Y-15036133D02*
X8234824Y-14864704D01*
X8368158Y-15064704D02*
X8349110Y-15055180D01*
X8349110Y-15055180D02*
X8339586Y-15036133D01*
X8339586Y-15036133D02*
X8339586Y-14864704D01*
X8596729Y-15064704D02*
X8596729Y-14864704D01*
X8596729Y-14864704D02*
X8663396Y-15007561D01*
X8663396Y-15007561D02*
X8730063Y-14864704D01*
X8730063Y-14864704D02*
X8730063Y-15064704D01*
X8911015Y-15064704D02*
X8911015Y-14959942D01*
X8911015Y-14959942D02*
X8901491Y-14940895D01*
X8901491Y-14940895D02*
X8882444Y-14931371D01*
X8882444Y-14931371D02*
X8844348Y-14931371D01*
X8844348Y-14931371D02*
X8825301Y-14940895D01*
X8911015Y-15055180D02*
X8891967Y-15064704D01*
X8891967Y-15064704D02*
X8844348Y-15064704D01*
X8844348Y-15064704D02*
X8825301Y-15055180D01*
X8825301Y-15055180D02*
X8815777Y-15036133D01*
X8815777Y-15036133D02*
X8815777Y-15017085D01*
X8815777Y-15017085D02*
X8825301Y-14998037D01*
X8825301Y-14998037D02*
X8844348Y-14988514D01*
X8844348Y-14988514D02*
X8891967Y-14988514D01*
X8891967Y-14988514D02*
X8911015Y-14978990D01*
X9006253Y-14931371D02*
X9006253Y-15131371D01*
X9006253Y-14940895D02*
X9025301Y-14931371D01*
X9025301Y-14931371D02*
X9063396Y-14931371D01*
X9063396Y-14931371D02*
X9082444Y-14940895D01*
X9082444Y-14940895D02*
X9091967Y-14950418D01*
X9091967Y-14950418D02*
X9101491Y-14969466D01*
X9101491Y-14969466D02*
X9101491Y-15026609D01*
X9101491Y-15026609D02*
X9091967Y-15045656D01*
X9091967Y-15045656D02*
X9082444Y-15055180D01*
X9082444Y-15055180D02*
X9063396Y-15064704D01*
X9063396Y-15064704D02*
X9025301Y-15064704D01*
X9025301Y-15064704D02*
X9006253Y-15055180D01*
X9187205Y-15045656D02*
X9196729Y-15055180D01*
X9196729Y-15055180D02*
X9187205Y-15064704D01*
X9187205Y-15064704D02*
X9177682Y-15055180D01*
X9177682Y-15055180D02*
X9187205Y-15045656D01*
X9187205Y-15045656D02*
X9187205Y-15064704D01*
X9187205Y-14940895D02*
X9196729Y-14950418D01*
X9196729Y-14950418D02*
X9187205Y-14959942D01*
X9187205Y-14959942D02*
X9177682Y-14950418D01*
X9177682Y-14950418D02*
X9187205Y-14940895D01*
X9187205Y-14940895D02*
X9187205Y-14959942D01*
D10*
X7515000Y-15373220D02*
X7555000Y-15413220D01*
X7555000Y-15373220D02*
X7515000Y-15413220D01*
D11*
X7853872Y-15284704D02*
X7872920Y-15284704D01*
X7872920Y-15284704D02*
X7891967Y-15294228D01*
X7891967Y-15294228D02*
X7901491Y-15303752D01*
X7901491Y-15303752D02*
X7911015Y-15322799D01*
X7911015Y-15322799D02*
X7920539Y-15360895D01*
X7920539Y-15360895D02*
X7920539Y-15408514D01*
X7920539Y-15408514D02*
X7911015Y-15446609D01*
X7911015Y-15446609D02*
X7901491Y-15465656D01*
X7901491Y-15465656D02*
X7891967Y-15475180D01*
X7891967Y-15475180D02*
X7872920Y-15484704D01*
X7872920Y-15484704D02*
X7853872Y-15484704D01*
X7853872Y-15484704D02*
X7834824Y-15475180D01*
X7834824Y-15475180D02*
X7825301Y-15465656D01*
X7825301Y-15465656D02*
X7815777Y-15446609D01*
X7815777Y-15446609D02*
X7806253Y-15408514D01*
X7806253Y-15408514D02*
X7806253Y-15360895D01*
X7806253Y-15360895D02*
X7815777Y-15322799D01*
X7815777Y-15322799D02*
X7825301Y-15303752D01*
X7825301Y-15303752D02*
X7834824Y-15294228D01*
X7834824Y-15294228D02*
X7853872Y-15284704D01*
X8006253Y-15465656D02*
X8015777Y-15475180D01*
X8015777Y-15475180D02*
X8006253Y-15484704D01*
X8006253Y-15484704D02*
X7996729Y-15475180D01*
X7996729Y-15475180D02*
X8006253Y-15465656D01*
X8006253Y-15465656D02*
X8006253Y-15484704D01*
X8187205Y-15351371D02*
X8187205Y-15484704D01*
X8139586Y-15275180D02*
X8091967Y-15418037D01*
X8091967Y-15418037D02*
X8215777Y-15418037D01*
X8330062Y-15284704D02*
X8349110Y-15284704D01*
X8349110Y-15284704D02*
X8368158Y-15294228D01*
X8368158Y-15294228D02*
X8377682Y-15303752D01*
X8377682Y-15303752D02*
X8387205Y-15322799D01*
X8387205Y-15322799D02*
X8396729Y-15360895D01*
X8396729Y-15360895D02*
X8396729Y-15408514D01*
X8396729Y-15408514D02*
X8387205Y-15446609D01*
X8387205Y-15446609D02*
X8377682Y-15465656D01*
X8377682Y-15465656D02*
X8368158Y-15475180D01*
X8368158Y-15475180D02*
X8349110Y-15484704D01*
X8349110Y-15484704D02*
X8330062Y-15484704D01*
X8330062Y-15484704D02*
X8311015Y-15475180D01*
X8311015Y-15475180D02*
X8301491Y-15465656D01*
X8301491Y-15465656D02*
X8291967Y-15446609D01*
X8291967Y-15446609D02*
X8282443Y-15408514D01*
X8282443Y-15408514D02*
X8282443Y-15360895D01*
X8282443Y-15360895D02*
X8291967Y-15322799D01*
X8291967Y-15322799D02*
X8301491Y-15303752D01*
X8301491Y-15303752D02*
X8311015Y-15294228D01*
X8311015Y-15294228D02*
X8330062Y-15284704D01*
X8520539Y-15284704D02*
X8539586Y-15284704D01*
X8539586Y-15284704D02*
X8558634Y-15294228D01*
X8558634Y-15294228D02*
X8568158Y-15303752D01*
X8568158Y-15303752D02*
X8577682Y-15322799D01*
X8577682Y-15322799D02*
X8587205Y-15360895D01*
X8587205Y-15360895D02*
X8587205Y-15408514D01*
X8587205Y-15408514D02*
X8577682Y-15446609D01*
X8577682Y-15446609D02*
X8568158Y-15465656D01*
X8568158Y-15465656D02*
X8558634Y-15475180D01*
X8558634Y-15475180D02*
X8539586Y-15484704D01*
X8539586Y-15484704D02*
X8520539Y-15484704D01*
X8520539Y-15484704D02*
X8501491Y-15475180D01*
X8501491Y-15475180D02*
X8491967Y-15465656D01*
X8491967Y-15465656D02*
X8482444Y-15446609D01*
X8482444Y-15446609D02*
X8472920Y-15408514D01*
X8472920Y-15408514D02*
X8472920Y-15360895D01*
X8472920Y-15360895D02*
X8482444Y-15322799D01*
X8482444Y-15322799D02*
X8491967Y-15303752D01*
X8491967Y-15303752D02*
X8501491Y-15294228D01*
X8501491Y-15294228D02*
X8520539Y-15284704D01*
X8672920Y-15484704D02*
X8672920Y-15351371D01*
X8672920Y-15370418D02*
X8682444Y-15360895D01*
X8682444Y-15360895D02*
X8701491Y-15351371D01*
X8701491Y-15351371D02*
X8730063Y-15351371D01*
X8730063Y-15351371D02*
X8749110Y-15360895D01*
X8749110Y-15360895D02*
X8758634Y-15379942D01*
X8758634Y-15379942D02*
X8758634Y-15484704D01*
X8758634Y-15379942D02*
X8768158Y-15360895D01*
X8768158Y-15360895D02*
X8787205Y-15351371D01*
X8787205Y-15351371D02*
X8815777Y-15351371D01*
X8815777Y-15351371D02*
X8834825Y-15360895D01*
X8834825Y-15360895D02*
X8844348Y-15379942D01*
X8844348Y-15379942D02*
X8844348Y-15484704D01*
X8939586Y-15484704D02*
X8939586Y-15351371D01*
X8939586Y-15370418D02*
X8949110Y-15360895D01*
X8949110Y-15360895D02*
X8968158Y-15351371D01*
X8968158Y-15351371D02*
X8996729Y-15351371D01*
X8996729Y-15351371D02*
X9015777Y-15360895D01*
X9015777Y-15360895D02*
X9025301Y-15379942D01*
X9025301Y-15379942D02*
X9025301Y-15484704D01*
X9025301Y-15379942D02*
X9034825Y-15360895D01*
X9034825Y-15360895D02*
X9053872Y-15351371D01*
X9053872Y-15351371D02*
X9082444Y-15351371D01*
X9082444Y-15351371D02*
X9101491Y-15360895D01*
X9101491Y-15360895D02*
X9111015Y-15379942D01*
X9111015Y-15379942D02*
X9111015Y-15484704D01*
X9501491Y-15275180D02*
X9330063Y-15532323D01*
X9758634Y-15284704D02*
X9777682Y-15284704D01*
X9777682Y-15284704D02*
X9796729Y-15294228D01*
X9796729Y-15294228D02*
X9806253Y-15303752D01*
X9806253Y-15303752D02*
X9815777Y-15322799D01*
X9815777Y-15322799D02*
X9825301Y-15360895D01*
X9825301Y-15360895D02*
X9825301Y-15408514D01*
X9825301Y-15408514D02*
X9815777Y-15446609D01*
X9815777Y-15446609D02*
X9806253Y-15465656D01*
X9806253Y-15465656D02*
X9796729Y-15475180D01*
X9796729Y-15475180D02*
X9777682Y-15484704D01*
X9777682Y-15484704D02*
X9758634Y-15484704D01*
X9758634Y-15484704D02*
X9739587Y-15475180D01*
X9739587Y-15475180D02*
X9730063Y-15465656D01*
X9730063Y-15465656D02*
X9720539Y-15446609D01*
X9720539Y-15446609D02*
X9711015Y-15408514D01*
X9711015Y-15408514D02*
X9711015Y-15360895D01*
X9711015Y-15360895D02*
X9720539Y-15322799D01*
X9720539Y-15322799D02*
X9730063Y-15303752D01*
X9730063Y-15303752D02*
X9739587Y-15294228D01*
X9739587Y-15294228D02*
X9758634Y-15284704D01*
X9911015Y-15465656D02*
X9920539Y-15475180D01*
X9920539Y-15475180D02*
X9911015Y-15484704D01*
X9911015Y-15484704D02*
X9901491Y-15475180D01*
X9901491Y-15475180D02*
X9911015Y-15465656D01*
X9911015Y-15465656D02*
X9911015Y-15484704D01*
X10044348Y-15284704D02*
X10063396Y-15284704D01*
X10063396Y-15284704D02*
X10082444Y-15294228D01*
X10082444Y-15294228D02*
X10091968Y-15303752D01*
X10091968Y-15303752D02*
X10101491Y-15322799D01*
X10101491Y-15322799D02*
X10111015Y-15360895D01*
X10111015Y-15360895D02*
X10111015Y-15408514D01*
X10111015Y-15408514D02*
X10101491Y-15446609D01*
X10101491Y-15446609D02*
X10091968Y-15465656D01*
X10091968Y-15465656D02*
X10082444Y-15475180D01*
X10082444Y-15475180D02*
X10063396Y-15484704D01*
X10063396Y-15484704D02*
X10044348Y-15484704D01*
X10044348Y-15484704D02*
X10025301Y-15475180D01*
X10025301Y-15475180D02*
X10015777Y-15465656D01*
X10015777Y-15465656D02*
X10006253Y-15446609D01*
X10006253Y-15446609D02*
X9996729Y-15408514D01*
X9996729Y-15408514D02*
X9996729Y-15360895D01*
X9996729Y-15360895D02*
X10006253Y-15322799D01*
X10006253Y-15322799D02*
X10015777Y-15303752D01*
X10015777Y-15303752D02*
X10025301Y-15294228D01*
X10025301Y-15294228D02*
X10044348Y-15284704D01*
X10301491Y-15484704D02*
X10187206Y-15484704D01*
X10244348Y-15484704D02*
X10244348Y-15284704D01*
X10244348Y-15284704D02*
X10225301Y-15313276D01*
X10225301Y-15313276D02*
X10206253Y-15332323D01*
X10206253Y-15332323D02*
X10187206Y-15341847D01*
X10482444Y-15284704D02*
X10387206Y-15284704D01*
X10387206Y-15284704D02*
X10377682Y-15379942D01*
X10377682Y-15379942D02*
X10387206Y-15370418D01*
X10387206Y-15370418D02*
X10406253Y-15360895D01*
X10406253Y-15360895D02*
X10453872Y-15360895D01*
X10453872Y-15360895D02*
X10472920Y-15370418D01*
X10472920Y-15370418D02*
X10482444Y-15379942D01*
X10482444Y-15379942D02*
X10491968Y-15398990D01*
X10491968Y-15398990D02*
X10491968Y-15446609D01*
X10491968Y-15446609D02*
X10482444Y-15465656D01*
X10482444Y-15465656D02*
X10472920Y-15475180D01*
X10472920Y-15475180D02*
X10453872Y-15484704D01*
X10453872Y-15484704D02*
X10406253Y-15484704D01*
X10406253Y-15484704D02*
X10387206Y-15475180D01*
X10387206Y-15475180D02*
X10377682Y-15465656D01*
X10558634Y-15284704D02*
X10691968Y-15284704D01*
X10691968Y-15284704D02*
X10606253Y-15484704D01*
X10758634Y-15284704D02*
X10758634Y-15322799D01*
X10834825Y-15284704D02*
X10834825Y-15322799D01*
X11130063Y-15560895D02*
X11120539Y-15551371D01*
X11120539Y-15551371D02*
X11101491Y-15522799D01*
X11101491Y-15522799D02*
X11091968Y-15503752D01*
X11091968Y-15503752D02*
X11082444Y-15475180D01*
X11082444Y-15475180D02*
X11072920Y-15427561D01*
X11072920Y-15427561D02*
X11072920Y-15389466D01*
X11072920Y-15389466D02*
X11082444Y-15341847D01*
X11082444Y-15341847D02*
X11091968Y-15313276D01*
X11091968Y-15313276D02*
X11101491Y-15294228D01*
X11101491Y-15294228D02*
X11120539Y-15265656D01*
X11120539Y-15265656D02*
X11130063Y-15256133D01*
X11311015Y-15484704D02*
X11196729Y-15484704D01*
X11253872Y-15484704D02*
X11253872Y-15284704D01*
X11253872Y-15284704D02*
X11234825Y-15313276D01*
X11234825Y-15313276D02*
X11215777Y-15332323D01*
X11215777Y-15332323D02*
X11196729Y-15341847D01*
X11434825Y-15284704D02*
X11453872Y-15284704D01*
X11453872Y-15284704D02*
X11472920Y-15294228D01*
X11472920Y-15294228D02*
X11482444Y-15303752D01*
X11482444Y-15303752D02*
X11491968Y-15322799D01*
X11491968Y-15322799D02*
X11501491Y-15360895D01*
X11501491Y-15360895D02*
X11501491Y-15408514D01*
X11501491Y-15408514D02*
X11491968Y-15446609D01*
X11491968Y-15446609D02*
X11482444Y-15465656D01*
X11482444Y-15465656D02*
X11472920Y-15475180D01*
X11472920Y-15475180D02*
X11453872Y-15484704D01*
X11453872Y-15484704D02*
X11434825Y-15484704D01*
X11434825Y-15484704D02*
X11415777Y-15475180D01*
X11415777Y-15475180D02*
X11406253Y-15465656D01*
X11406253Y-15465656D02*
X11396729Y-15446609D01*
X11396729Y-15446609D02*
X11387206Y-15408514D01*
X11387206Y-15408514D02*
X11387206Y-15360895D01*
X11387206Y-15360895D02*
X11396729Y-15322799D01*
X11396729Y-15322799D02*
X11406253Y-15303752D01*
X11406253Y-15303752D02*
X11415777Y-15294228D01*
X11415777Y-15294228D02*
X11434825Y-15284704D01*
X11672920Y-15284704D02*
X11634825Y-15284704D01*
X11634825Y-15284704D02*
X11615777Y-15294228D01*
X11615777Y-15294228D02*
X11606253Y-15303752D01*
X11606253Y-15303752D02*
X11587206Y-15332323D01*
X11587206Y-15332323D02*
X11577682Y-15370418D01*
X11577682Y-15370418D02*
X11577682Y-15446609D01*
X11577682Y-15446609D02*
X11587206Y-15465656D01*
X11587206Y-15465656D02*
X11596729Y-15475180D01*
X11596729Y-15475180D02*
X11615777Y-15484704D01*
X11615777Y-15484704D02*
X11653872Y-15484704D01*
X11653872Y-15484704D02*
X11672920Y-15475180D01*
X11672920Y-15475180D02*
X11682444Y-15465656D01*
X11682444Y-15465656D02*
X11691968Y-15446609D01*
X11691968Y-15446609D02*
X11691968Y-15398990D01*
X11691968Y-15398990D02*
X11682444Y-15379942D01*
X11682444Y-15379942D02*
X11672920Y-15370418D01*
X11672920Y-15370418D02*
X11653872Y-15360895D01*
X11653872Y-15360895D02*
X11615777Y-15360895D01*
X11615777Y-15360895D02*
X11596729Y-15370418D01*
X11596729Y-15370418D02*
X11587206Y-15379942D01*
X11587206Y-15379942D02*
X11577682Y-15398990D01*
X11930063Y-15484704D02*
X11930063Y-15284704D01*
X12015777Y-15484704D02*
X12015777Y-15379942D01*
X12015777Y-15379942D02*
X12006253Y-15360895D01*
X12006253Y-15360895D02*
X11987206Y-15351371D01*
X11987206Y-15351371D02*
X11958634Y-15351371D01*
X11958634Y-15351371D02*
X11939587Y-15360895D01*
X11939587Y-15360895D02*
X11930063Y-15370418D01*
X12139587Y-15484704D02*
X12120539Y-15475180D01*
X12120539Y-15475180D02*
X12111015Y-15465656D01*
X12111015Y-15465656D02*
X12101491Y-15446609D01*
X12101491Y-15446609D02*
X12101491Y-15389466D01*
X12101491Y-15389466D02*
X12111015Y-15370418D01*
X12111015Y-15370418D02*
X12120539Y-15360895D01*
X12120539Y-15360895D02*
X12139587Y-15351371D01*
X12139587Y-15351371D02*
X12168158Y-15351371D01*
X12168158Y-15351371D02*
X12187206Y-15360895D01*
X12187206Y-15360895D02*
X12196730Y-15370418D01*
X12196730Y-15370418D02*
X12206253Y-15389466D01*
X12206253Y-15389466D02*
X12206253Y-15446609D01*
X12206253Y-15446609D02*
X12196730Y-15465656D01*
X12196730Y-15465656D02*
X12187206Y-15475180D01*
X12187206Y-15475180D02*
X12168158Y-15484704D01*
X12168158Y-15484704D02*
X12139587Y-15484704D01*
X12320539Y-15484704D02*
X12301491Y-15475180D01*
X12301491Y-15475180D02*
X12291968Y-15456133D01*
X12291968Y-15456133D02*
X12291968Y-15284704D01*
X12472920Y-15475180D02*
X12453872Y-15484704D01*
X12453872Y-15484704D02*
X12415777Y-15484704D01*
X12415777Y-15484704D02*
X12396730Y-15475180D01*
X12396730Y-15475180D02*
X12387206Y-15456133D01*
X12387206Y-15456133D02*
X12387206Y-15379942D01*
X12387206Y-15379942D02*
X12396730Y-15360895D01*
X12396730Y-15360895D02*
X12415777Y-15351371D01*
X12415777Y-15351371D02*
X12453872Y-15351371D01*
X12453872Y-15351371D02*
X12472920Y-15360895D01*
X12472920Y-15360895D02*
X12482444Y-15379942D01*
X12482444Y-15379942D02*
X12482444Y-15398990D01*
X12482444Y-15398990D02*
X12387206Y-15418037D01*
X12558634Y-15475180D02*
X12577682Y-15484704D01*
X12577682Y-15484704D02*
X12615777Y-15484704D01*
X12615777Y-15484704D02*
X12634825Y-15475180D01*
X12634825Y-15475180D02*
X12644349Y-15456133D01*
X12644349Y-15456133D02*
X12644349Y-15446609D01*
X12644349Y-15446609D02*
X12634825Y-15427561D01*
X12634825Y-15427561D02*
X12615777Y-15418037D01*
X12615777Y-15418037D02*
X12587206Y-15418037D01*
X12587206Y-15418037D02*
X12568158Y-15408514D01*
X12568158Y-15408514D02*
X12558634Y-15389466D01*
X12558634Y-15389466D02*
X12558634Y-15379942D01*
X12558634Y-15379942D02*
X12568158Y-15360895D01*
X12568158Y-15360895D02*
X12587206Y-15351371D01*
X12587206Y-15351371D02*
X12615777Y-15351371D01*
X12615777Y-15351371D02*
X12634825Y-15360895D01*
X12711015Y-15560895D02*
X12720539Y-15551371D01*
X12720539Y-15551371D02*
X12739587Y-15522799D01*
X12739587Y-15522799D02*
X12749111Y-15503752D01*
X12749111Y-15503752D02*
X12758634Y-15475180D01*
X12758634Y-15475180D02*
X12768158Y-15427561D01*
X12768158Y-15427561D02*
X12768158Y-15389466D01*
X12768158Y-15389466D02*
X12758634Y-15341847D01*
X12758634Y-15341847D02*
X12749111Y-15313276D01*
X12749111Y-15313276D02*
X12739587Y-15294228D01*
X12739587Y-15294228D02*
X12720539Y-15265656D01*
X12720539Y-15265656D02*
X12711015Y-15256133D01*
D10*
X7555000Y-15657220D02*
G75*
G02*
X7455000Y-15657220I-50000J0D01*
G01*
X7455000Y-15657220D02*
G75*
G02*
X7555000Y-15657220I50000J0D01*
G01*
D11*
X7920539Y-15748704D02*
X7806253Y-15748704D01*
X7863396Y-15748704D02*
X7863396Y-15548704D01*
X7863396Y-15548704D02*
X7844348Y-15577276D01*
X7844348Y-15577276D02*
X7825301Y-15596323D01*
X7825301Y-15596323D02*
X7806253Y-15605847D01*
X8006253Y-15729656D02*
X8015777Y-15739180D01*
X8015777Y-15739180D02*
X8006253Y-15748704D01*
X8006253Y-15748704D02*
X7996729Y-15739180D01*
X7996729Y-15739180D02*
X8006253Y-15729656D01*
X8006253Y-15729656D02*
X8006253Y-15748704D01*
X8139586Y-15548704D02*
X8158634Y-15548704D01*
X8158634Y-15548704D02*
X8177682Y-15558228D01*
X8177682Y-15558228D02*
X8187205Y-15567752D01*
X8187205Y-15567752D02*
X8196729Y-15586799D01*
X8196729Y-15586799D02*
X8206253Y-15624895D01*
X8206253Y-15624895D02*
X8206253Y-15672514D01*
X8206253Y-15672514D02*
X8196729Y-15710609D01*
X8196729Y-15710609D02*
X8187205Y-15729656D01*
X8187205Y-15729656D02*
X8177682Y-15739180D01*
X8177682Y-15739180D02*
X8158634Y-15748704D01*
X8158634Y-15748704D02*
X8139586Y-15748704D01*
X8139586Y-15748704D02*
X8120539Y-15739180D01*
X8120539Y-15739180D02*
X8111015Y-15729656D01*
X8111015Y-15729656D02*
X8101491Y-15710609D01*
X8101491Y-15710609D02*
X8091967Y-15672514D01*
X8091967Y-15672514D02*
X8091967Y-15624895D01*
X8091967Y-15624895D02*
X8101491Y-15586799D01*
X8101491Y-15586799D02*
X8111015Y-15567752D01*
X8111015Y-15567752D02*
X8120539Y-15558228D01*
X8120539Y-15558228D02*
X8139586Y-15548704D01*
X8330062Y-15548704D02*
X8349110Y-15548704D01*
X8349110Y-15548704D02*
X8368158Y-15558228D01*
X8368158Y-15558228D02*
X8377682Y-15567752D01*
X8377682Y-15567752D02*
X8387205Y-15586799D01*
X8387205Y-15586799D02*
X8396729Y-15624895D01*
X8396729Y-15624895D02*
X8396729Y-15672514D01*
X8396729Y-15672514D02*
X8387205Y-15710609D01*
X8387205Y-15710609D02*
X8377682Y-15729656D01*
X8377682Y-15729656D02*
X8368158Y-15739180D01*
X8368158Y-15739180D02*
X8349110Y-15748704D01*
X8349110Y-15748704D02*
X8330062Y-15748704D01*
X8330062Y-15748704D02*
X8311015Y-15739180D01*
X8311015Y-15739180D02*
X8301491Y-15729656D01*
X8301491Y-15729656D02*
X8291967Y-15710609D01*
X8291967Y-15710609D02*
X8282443Y-15672514D01*
X8282443Y-15672514D02*
X8282443Y-15624895D01*
X8282443Y-15624895D02*
X8291967Y-15586799D01*
X8291967Y-15586799D02*
X8301491Y-15567752D01*
X8301491Y-15567752D02*
X8311015Y-15558228D01*
X8311015Y-15558228D02*
X8330062Y-15548704D01*
X8520539Y-15548704D02*
X8539586Y-15548704D01*
X8539586Y-15548704D02*
X8558634Y-15558228D01*
X8558634Y-15558228D02*
X8568158Y-15567752D01*
X8568158Y-15567752D02*
X8577682Y-15586799D01*
X8577682Y-15586799D02*
X8587205Y-15624895D01*
X8587205Y-15624895D02*
X8587205Y-15672514D01*
X8587205Y-15672514D02*
X8577682Y-15710609D01*
X8577682Y-15710609D02*
X8568158Y-15729656D01*
X8568158Y-15729656D02*
X8558634Y-15739180D01*
X8558634Y-15739180D02*
X8539586Y-15748704D01*
X8539586Y-15748704D02*
X8520539Y-15748704D01*
X8520539Y-15748704D02*
X8501491Y-15739180D01*
X8501491Y-15739180D02*
X8491967Y-15729656D01*
X8491967Y-15729656D02*
X8482444Y-15710609D01*
X8482444Y-15710609D02*
X8472920Y-15672514D01*
X8472920Y-15672514D02*
X8472920Y-15624895D01*
X8472920Y-15624895D02*
X8482444Y-15586799D01*
X8482444Y-15586799D02*
X8491967Y-15567752D01*
X8491967Y-15567752D02*
X8501491Y-15558228D01*
X8501491Y-15558228D02*
X8520539Y-15548704D01*
X8672920Y-15748704D02*
X8672920Y-15615371D01*
X8672920Y-15634418D02*
X8682444Y-15624895D01*
X8682444Y-15624895D02*
X8701491Y-15615371D01*
X8701491Y-15615371D02*
X8730063Y-15615371D01*
X8730063Y-15615371D02*
X8749110Y-15624895D01*
X8749110Y-15624895D02*
X8758634Y-15643942D01*
X8758634Y-15643942D02*
X8758634Y-15748704D01*
X8758634Y-15643942D02*
X8768158Y-15624895D01*
X8768158Y-15624895D02*
X8787205Y-15615371D01*
X8787205Y-15615371D02*
X8815777Y-15615371D01*
X8815777Y-15615371D02*
X8834825Y-15624895D01*
X8834825Y-15624895D02*
X8844348Y-15643942D01*
X8844348Y-15643942D02*
X8844348Y-15748704D01*
X8939586Y-15748704D02*
X8939586Y-15615371D01*
X8939586Y-15634418D02*
X8949110Y-15624895D01*
X8949110Y-15624895D02*
X8968158Y-15615371D01*
X8968158Y-15615371D02*
X8996729Y-15615371D01*
X8996729Y-15615371D02*
X9015777Y-15624895D01*
X9015777Y-15624895D02*
X9025301Y-15643942D01*
X9025301Y-15643942D02*
X9025301Y-15748704D01*
X9025301Y-15643942D02*
X9034825Y-15624895D01*
X9034825Y-15624895D02*
X9053872Y-15615371D01*
X9053872Y-15615371D02*
X9082444Y-15615371D01*
X9082444Y-15615371D02*
X9101491Y-15624895D01*
X9101491Y-15624895D02*
X9111015Y-15643942D01*
X9111015Y-15643942D02*
X9111015Y-15748704D01*
X9501491Y-15539180D02*
X9330063Y-15796323D01*
X9758634Y-15548704D02*
X9777682Y-15548704D01*
X9777682Y-15548704D02*
X9796729Y-15558228D01*
X9796729Y-15558228D02*
X9806253Y-15567752D01*
X9806253Y-15567752D02*
X9815777Y-15586799D01*
X9815777Y-15586799D02*
X9825301Y-15624895D01*
X9825301Y-15624895D02*
X9825301Y-15672514D01*
X9825301Y-15672514D02*
X9815777Y-15710609D01*
X9815777Y-15710609D02*
X9806253Y-15729656D01*
X9806253Y-15729656D02*
X9796729Y-15739180D01*
X9796729Y-15739180D02*
X9777682Y-15748704D01*
X9777682Y-15748704D02*
X9758634Y-15748704D01*
X9758634Y-15748704D02*
X9739587Y-15739180D01*
X9739587Y-15739180D02*
X9730063Y-15729656D01*
X9730063Y-15729656D02*
X9720539Y-15710609D01*
X9720539Y-15710609D02*
X9711015Y-15672514D01*
X9711015Y-15672514D02*
X9711015Y-15624895D01*
X9711015Y-15624895D02*
X9720539Y-15586799D01*
X9720539Y-15586799D02*
X9730063Y-15567752D01*
X9730063Y-15567752D02*
X9739587Y-15558228D01*
X9739587Y-15558228D02*
X9758634Y-15548704D01*
X9911015Y-15729656D02*
X9920539Y-15739180D01*
X9920539Y-15739180D02*
X9911015Y-15748704D01*
X9911015Y-15748704D02*
X9901491Y-15739180D01*
X9901491Y-15739180D02*
X9911015Y-15729656D01*
X9911015Y-15729656D02*
X9911015Y-15748704D01*
X10044348Y-15548704D02*
X10063396Y-15548704D01*
X10063396Y-15548704D02*
X10082444Y-15558228D01*
X10082444Y-15558228D02*
X10091968Y-15567752D01*
X10091968Y-15567752D02*
X10101491Y-15586799D01*
X10101491Y-15586799D02*
X10111015Y-15624895D01*
X10111015Y-15624895D02*
X10111015Y-15672514D01*
X10111015Y-15672514D02*
X10101491Y-15710609D01*
X10101491Y-15710609D02*
X10091968Y-15729656D01*
X10091968Y-15729656D02*
X10082444Y-15739180D01*
X10082444Y-15739180D02*
X10063396Y-15748704D01*
X10063396Y-15748704D02*
X10044348Y-15748704D01*
X10044348Y-15748704D02*
X10025301Y-15739180D01*
X10025301Y-15739180D02*
X10015777Y-15729656D01*
X10015777Y-15729656D02*
X10006253Y-15710609D01*
X10006253Y-15710609D02*
X9996729Y-15672514D01*
X9996729Y-15672514D02*
X9996729Y-15624895D01*
X9996729Y-15624895D02*
X10006253Y-15586799D01*
X10006253Y-15586799D02*
X10015777Y-15567752D01*
X10015777Y-15567752D02*
X10025301Y-15558228D01*
X10025301Y-15558228D02*
X10044348Y-15548704D01*
X10177682Y-15548704D02*
X10301491Y-15548704D01*
X10301491Y-15548704D02*
X10234825Y-15624895D01*
X10234825Y-15624895D02*
X10263396Y-15624895D01*
X10263396Y-15624895D02*
X10282444Y-15634418D01*
X10282444Y-15634418D02*
X10291968Y-15643942D01*
X10291968Y-15643942D02*
X10301491Y-15662990D01*
X10301491Y-15662990D02*
X10301491Y-15710609D01*
X10301491Y-15710609D02*
X10291968Y-15729656D01*
X10291968Y-15729656D02*
X10282444Y-15739180D01*
X10282444Y-15739180D02*
X10263396Y-15748704D01*
X10263396Y-15748704D02*
X10206253Y-15748704D01*
X10206253Y-15748704D02*
X10187206Y-15739180D01*
X10187206Y-15739180D02*
X10177682Y-15729656D01*
X10396729Y-15748704D02*
X10434825Y-15748704D01*
X10434825Y-15748704D02*
X10453872Y-15739180D01*
X10453872Y-15739180D02*
X10463396Y-15729656D01*
X10463396Y-15729656D02*
X10482444Y-15701085D01*
X10482444Y-15701085D02*
X10491968Y-15662990D01*
X10491968Y-15662990D02*
X10491968Y-15586799D01*
X10491968Y-15586799D02*
X10482444Y-15567752D01*
X10482444Y-15567752D02*
X10472920Y-15558228D01*
X10472920Y-15558228D02*
X10453872Y-15548704D01*
X10453872Y-15548704D02*
X10415777Y-15548704D01*
X10415777Y-15548704D02*
X10396729Y-15558228D01*
X10396729Y-15558228D02*
X10387206Y-15567752D01*
X10387206Y-15567752D02*
X10377682Y-15586799D01*
X10377682Y-15586799D02*
X10377682Y-15634418D01*
X10377682Y-15634418D02*
X10387206Y-15653466D01*
X10387206Y-15653466D02*
X10396729Y-15662990D01*
X10396729Y-15662990D02*
X10415777Y-15672514D01*
X10415777Y-15672514D02*
X10453872Y-15672514D01*
X10453872Y-15672514D02*
X10472920Y-15662990D01*
X10472920Y-15662990D02*
X10482444Y-15653466D01*
X10482444Y-15653466D02*
X10491968Y-15634418D01*
X10663396Y-15615371D02*
X10663396Y-15748704D01*
X10615777Y-15539180D02*
X10568158Y-15682037D01*
X10568158Y-15682037D02*
X10691968Y-15682037D01*
X10758634Y-15548704D02*
X10758634Y-15586799D01*
X10834825Y-15548704D02*
X10834825Y-15586799D01*
X11130063Y-15824895D02*
X11120539Y-15815371D01*
X11120539Y-15815371D02*
X11101491Y-15786799D01*
X11101491Y-15786799D02*
X11091968Y-15767752D01*
X11091968Y-15767752D02*
X11082444Y-15739180D01*
X11082444Y-15739180D02*
X11072920Y-15691561D01*
X11072920Y-15691561D02*
X11072920Y-15653466D01*
X11072920Y-15653466D02*
X11082444Y-15605847D01*
X11082444Y-15605847D02*
X11091968Y-15577276D01*
X11091968Y-15577276D02*
X11101491Y-15558228D01*
X11101491Y-15558228D02*
X11120539Y-15529656D01*
X11120539Y-15529656D02*
X11130063Y-15520133D01*
X11291968Y-15548704D02*
X11253872Y-15548704D01*
X11253872Y-15548704D02*
X11234825Y-15558228D01*
X11234825Y-15558228D02*
X11225301Y-15567752D01*
X11225301Y-15567752D02*
X11206253Y-15596323D01*
X11206253Y-15596323D02*
X11196729Y-15634418D01*
X11196729Y-15634418D02*
X11196729Y-15710609D01*
X11196729Y-15710609D02*
X11206253Y-15729656D01*
X11206253Y-15729656D02*
X11215777Y-15739180D01*
X11215777Y-15739180D02*
X11234825Y-15748704D01*
X11234825Y-15748704D02*
X11272920Y-15748704D01*
X11272920Y-15748704D02*
X11291968Y-15739180D01*
X11291968Y-15739180D02*
X11301491Y-15729656D01*
X11301491Y-15729656D02*
X11311015Y-15710609D01*
X11311015Y-15710609D02*
X11311015Y-15662990D01*
X11311015Y-15662990D02*
X11301491Y-15643942D01*
X11301491Y-15643942D02*
X11291968Y-15634418D01*
X11291968Y-15634418D02*
X11272920Y-15624895D01*
X11272920Y-15624895D02*
X11234825Y-15624895D01*
X11234825Y-15624895D02*
X11215777Y-15634418D01*
X11215777Y-15634418D02*
X11206253Y-15643942D01*
X11206253Y-15643942D02*
X11196729Y-15662990D01*
X11549110Y-15748704D02*
X11549110Y-15548704D01*
X11634825Y-15748704D02*
X11634825Y-15643942D01*
X11634825Y-15643942D02*
X11625301Y-15624895D01*
X11625301Y-15624895D02*
X11606253Y-15615371D01*
X11606253Y-15615371D02*
X11577682Y-15615371D01*
X11577682Y-15615371D02*
X11558634Y-15624895D01*
X11558634Y-15624895D02*
X11549110Y-15634418D01*
X11758634Y-15748704D02*
X11739587Y-15739180D01*
X11739587Y-15739180D02*
X11730063Y-15729656D01*
X11730063Y-15729656D02*
X11720539Y-15710609D01*
X11720539Y-15710609D02*
X11720539Y-15653466D01*
X11720539Y-15653466D02*
X11730063Y-15634418D01*
X11730063Y-15634418D02*
X11739587Y-15624895D01*
X11739587Y-15624895D02*
X11758634Y-15615371D01*
X11758634Y-15615371D02*
X11787206Y-15615371D01*
X11787206Y-15615371D02*
X11806253Y-15624895D01*
X11806253Y-15624895D02*
X11815777Y-15634418D01*
X11815777Y-15634418D02*
X11825301Y-15653466D01*
X11825301Y-15653466D02*
X11825301Y-15710609D01*
X11825301Y-15710609D02*
X11815777Y-15729656D01*
X11815777Y-15729656D02*
X11806253Y-15739180D01*
X11806253Y-15739180D02*
X11787206Y-15748704D01*
X11787206Y-15748704D02*
X11758634Y-15748704D01*
X11939587Y-15748704D02*
X11920539Y-15739180D01*
X11920539Y-15739180D02*
X11911015Y-15720133D01*
X11911015Y-15720133D02*
X11911015Y-15548704D01*
X12091968Y-15739180D02*
X12072920Y-15748704D01*
X12072920Y-15748704D02*
X12034825Y-15748704D01*
X12034825Y-15748704D02*
X12015777Y-15739180D01*
X12015777Y-15739180D02*
X12006253Y-15720133D01*
X12006253Y-15720133D02*
X12006253Y-15643942D01*
X12006253Y-15643942D02*
X12015777Y-15624895D01*
X12015777Y-15624895D02*
X12034825Y-15615371D01*
X12034825Y-15615371D02*
X12072920Y-15615371D01*
X12072920Y-15615371D02*
X12091968Y-15624895D01*
X12091968Y-15624895D02*
X12101491Y-15643942D01*
X12101491Y-15643942D02*
X12101491Y-15662990D01*
X12101491Y-15662990D02*
X12006253Y-15682037D01*
X12177682Y-15739180D02*
X12196730Y-15748704D01*
X12196730Y-15748704D02*
X12234825Y-15748704D01*
X12234825Y-15748704D02*
X12253872Y-15739180D01*
X12253872Y-15739180D02*
X12263396Y-15720133D01*
X12263396Y-15720133D02*
X12263396Y-15710609D01*
X12263396Y-15710609D02*
X12253872Y-15691561D01*
X12253872Y-15691561D02*
X12234825Y-15682037D01*
X12234825Y-15682037D02*
X12206253Y-15682037D01*
X12206253Y-15682037D02*
X12187206Y-15672514D01*
X12187206Y-15672514D02*
X12177682Y-15653466D01*
X12177682Y-15653466D02*
X12177682Y-15643942D01*
X12177682Y-15643942D02*
X12187206Y-15624895D01*
X12187206Y-15624895D02*
X12206253Y-15615371D01*
X12206253Y-15615371D02*
X12234825Y-15615371D01*
X12234825Y-15615371D02*
X12253872Y-15624895D01*
X12330063Y-15824895D02*
X12339587Y-15815371D01*
X12339587Y-15815371D02*
X12358634Y-15786799D01*
X12358634Y-15786799D02*
X12368158Y-15767752D01*
X12368158Y-15767752D02*
X12377682Y-15739180D01*
X12377682Y-15739180D02*
X12387206Y-15691561D01*
X12387206Y-15691561D02*
X12387206Y-15653466D01*
X12387206Y-15653466D02*
X12377682Y-15605847D01*
X12377682Y-15605847D02*
X12368158Y-15577276D01*
X12368158Y-15577276D02*
X12358634Y-15558228D01*
X12358634Y-15558228D02*
X12339587Y-15529656D01*
X12339587Y-15529656D02*
X12330063Y-15520133D01*
M02*
