M48
; DRILL file {KiCad 8.0.2-1} date 2024-09-12T16:14:05+0300
; FORMAT={-:-/ absolute / metric / decimal}
; #@! TF.CreationDate,2024-09-12T16:14:05+03:00
; #@! TF.GenerationSoftware,Kicad,Pcbnew,8.0.2-1
; #@! TF.FileFunction,Plated,1,2,PTH
FMAT,2
METRIC
; #@! TA.AperFunction,Plated,PTH,ViaDrill
T1C0.400
; #@! TA.AperFunction,Plated,PTH,ComponentDrill
T2C1.000
%
G90
G05
T1
X78.25Y-81.241
X78.25Y-100.241
X78.25Y-119.241
X82.75Y-69.491
X82.75Y-88.491
X82.75Y-107.491
X86.25Y-69.491
X86.25Y-88.491
X86.25Y-107.491
X92.25Y-79.741
X92.5Y-98.491
X92.5Y-117.991
X97.25Y-81.241
X97.25Y-100.241
X97.25Y-119.241
X101.75Y-69.491
X101.75Y-88.491
X102.0Y-107.491
X105.25Y-69.491
X105.25Y-88.491
X105.5Y-107.491
X111.5Y-79.491
X111.5Y-98.491
X111.5Y-117.991
X116.0Y-67.741
X116.0Y-86.741
X116.0Y-105.991
X120.75Y-56.741
X120.75Y-75.741
X120.75Y-94.741
X124.25Y-56.741
X124.25Y-75.741
X124.25Y-94.741
X130.25Y-85.491
X130.5Y-66.491
X130.5Y-104.491
X135.0Y-63.241
X135.0Y-82.241
X135.0Y-101.241
X139.75Y-51.741
X139.75Y-89.741
X140.0Y-70.741
X143.25Y-51.741
X143.25Y-89.741
X143.5Y-70.741
X149.5Y-61.491
X149.5Y-80.491
X149.5Y-99.491
X154.0Y-87.241
X154.0Y-106.241
X154.0Y-127.491
X154.25Y-68.241
X158.713Y-94.741
X158.75Y-56.741
X158.75Y-75.741
X158.75Y-115.741
X162.25Y-56.741
X162.25Y-75.741
X162.25Y-115.741
X162.287Y-94.741
X168.5Y-66.491
X168.5Y-85.491
X168.5Y-104.491
X168.5Y-125.991
X173.0Y-89.241
X173.0Y-108.241
X173.2Y-70.291
X174.5Y-129.241
X177.75Y-58.741
X177.75Y-77.741
X177.75Y-96.741
X181.25Y-58.741
X181.25Y-77.741
X181.25Y-96.741
X182.5Y-119.241
X186.0Y-120.491
X187.5Y-68.491
X187.5Y-87.491
X187.5Y-106.491
X188.4Y-96.691
X189.0Y-131.741
X193.25Y-136.991
X194.4Y-66.756
X195.2Y-69.164
X195.2Y-71.704
X195.2Y-73.736
X198.0Y-82.116
X199.802Y-63.894
X200.0Y-77.116
X200.0Y-80.616
X201.0Y-79.616
X201.0Y-83.116
X201.25Y-60.528
X202.723Y-65.799
X202.75Y-60.528
X204.0Y-130.241
X206.0Y-67.691
X206.0Y-69.926
X206.0Y-72.466
X206.0Y-143.991
X206.2Y-59.691
X206.2Y-60.891
X206.2Y-62.291
X206.5Y-77.116
X206.5Y-83.116
X206.75Y-132.491
T2
X194.0Y-78.116
X196.055Y-63.894
X196.055Y-65.799
X198.0Y-78.116
X204.945Y-63.894
X204.945Y-65.799
M30
