M48
; DRILL file {KiCad 8.0.2-1} date 2024-09-12T16:14:05+0300
; FORMAT={-:-/ absolute / metric / decimal}
; #@! TF.CreationDate,2024-09-12T16:14:05+03:00
; #@! TF.GenerationSoftware,Kicad,Pcbnew,8.0.2-1
; #@! TF.FileFunction,NonPlated,1,2,NPTH
FMAT,2
METRIC
; #@! TA.AperFunction,NonPlated,NPTH,ComponentDrill
T1C0.900
; #@! TA.AperFunction,NonPlated,NPTH,ComponentDrill
T2C3.000
; #@! TA.AperFunction,NonPlated,NPTH,ComponentDrill
T3C4.200
; #@! TA.AperFunction,NonPlated,NPTH,ComponentDrill
T4C5.100
%
G90
G05
T1
X199.0Y-56.886
X202.0Y-56.886
T2
X80.1Y-80.2
X80.1Y-99.191
X80.1Y-118.191
X81.9Y-81.25
X81.9Y-100.241
X81.9Y-119.241
X87.1Y-81.25
X87.1Y-100.241
X87.1Y-119.241
X88.9Y-80.2
X88.9Y-99.191
X88.9Y-118.191
X99.1Y-80.2
X99.1Y-99.191
X99.1Y-118.2
X100.9Y-81.25
X100.9Y-100.241
X100.9Y-119.25
X106.1Y-81.25
X106.1Y-100.241
X106.1Y-119.25
X107.9Y-80.2
X107.9Y-99.191
X107.9Y-118.2
X118.1Y-67.2
X118.1Y-86.2
X118.1Y-105.2
X119.9Y-68.25
X119.9Y-87.25
X119.9Y-106.25
X125.1Y-68.25
X125.1Y-87.25
X125.1Y-106.25
X126.9Y-67.2
X126.9Y-86.2
X126.9Y-105.2
X137.1Y-62.191
X137.1Y-81.191
X137.1Y-100.2
X138.9Y-63.241
X138.9Y-82.241
X138.9Y-101.25
X144.1Y-63.241
X144.1Y-82.241
X144.1Y-101.25
X145.9Y-62.191
X145.9Y-81.191
X145.9Y-100.2
X156.1Y-67.2
X156.1Y-86.2
X156.1Y-105.2
X156.1Y-126.191
X157.9Y-68.25
X157.9Y-87.25
X157.9Y-106.25
X157.9Y-127.241
X163.1Y-68.25
X163.1Y-87.25
X163.1Y-106.25
X163.1Y-127.241
X164.9Y-67.2
X164.9Y-86.2
X164.9Y-105.2
X164.9Y-126.191
X175.1Y-69.2
X175.1Y-88.2
X175.1Y-107.2
X176.81Y-128.252
X176.9Y-70.25
X176.9Y-89.25
X176.9Y-108.25
X178.17Y-129.831
X182.1Y-70.25
X182.1Y-89.25
X182.1Y-108.25
X183.086Y-131.524
X183.9Y-69.2
X183.9Y-88.2
X183.9Y-107.2
X185.13Y-131.117
X195.706Y-136.937
X196.478Y-138.872
X200.576Y-142.074
X202.641Y-142.355
T3
X94.0Y-72.0
X94.0Y-112.0
X141.5Y-67.0
X141.5Y-112.0
X184.4Y-73.891
X197.4Y-121.091
T4
X84.5Y-75.5
X84.5Y-94.491
X84.5Y-113.491
X103.5Y-75.5
X103.5Y-94.491
X103.5Y-113.5
X122.5Y-62.5
X122.5Y-81.5
X122.5Y-100.5
X141.5Y-57.491
X141.5Y-76.491
X141.5Y-95.5
X160.5Y-62.5
X160.5Y-81.5
X160.5Y-100.5
X160.5Y-121.491
X179.5Y-64.5
X179.5Y-83.5
X179.5Y-102.5
X182.5Y-125.241
X202.067Y-135.942
M30
