G04 #@! TF.GenerationSoftware,KiCad,Pcbnew,8.0.2-1*
G04 #@! TF.CreationDate,2024-09-12T16:13:46+03:00*
G04 #@! TF.ProjectId,pcb,7063622e-6b69-4636-9164-5f7063625858,rev?*
G04 #@! TF.SameCoordinates,Original*
G04 #@! TF.FileFunction,Soldermask,Bot*
G04 #@! TF.FilePolarity,Negative*
%FSLAX46Y46*%
G04 Gerber Fmt 4.6, Leading zero omitted, Abs format (unit mm)*
G04 Created by KiCad (PCBNEW 8.0.2-1) date 2024-09-12 16:13:46*
%MOMM*%
%LPD*%
G01*
G04 APERTURE LIST*
G04 Aperture macros list*
%AMRoundRect*
0 Rectangle with rounded corners*
0 $1 Rounding radius*
0 $2 $3 $4 $5 $6 $7 $8 $9 X,Y pos of 4 corners*
0 Add a 4 corners polygon primitive as box body*
4,1,4,$2,$3,$4,$5,$6,$7,$8,$9,$2,$3,0*
0 Add four circle primitives for the rounded corners*
1,1,$1+$1,$2,$3*
1,1,$1+$1,$4,$5*
1,1,$1+$1,$6,$7*
1,1,$1+$1,$8,$9*
0 Add four rect primitives between the rounded corners*
20,1,$1+$1,$2,$3,$4,$5,0*
20,1,$1+$1,$4,$5,$6,$7,0*
20,1,$1+$1,$6,$7,$8,$9,0*
20,1,$1+$1,$8,$9,$2,$3,0*%
%AMRotRect*
0 Rectangle, with rotation*
0 The origin of the aperture is its center*
0 $1 length*
0 $2 width*
0 $3 Rotation angle, in degrees counterclockwise*
0 Add horizontal line*
21,1,$1,$2,0,0,$3*%
%AMOutline5P*
0 Free polygon, 5 corners , with rotation*
0 The origin of the aperture is its center*
0 number of corners: always 5*
0 $1 to $10 corner X, Y*
0 $11 Rotation angle, in degrees counterclockwise*
0 create outline with 5 corners*
4,1,5,$1,$2,$3,$4,$5,$6,$7,$8,$9,$10,$1,$2,$11*%
%AMOutline6P*
0 Free polygon, 6 corners , with rotation*
0 The origin of the aperture is its center*
0 number of corners: always 6*
0 $1 to $12 corner X, Y*
0 $13 Rotation angle, in degrees counterclockwise*
0 create outline with 6 corners*
4,1,6,$1,$2,$3,$4,$5,$6,$7,$8,$9,$10,$11,$12,$1,$2,$13*%
%AMOutline7P*
0 Free polygon, 7 corners , with rotation*
0 The origin of the aperture is its center*
0 number of corners: always 7*
0 $1 to $14 corner X, Y*
0 $15 Rotation angle, in degrees counterclockwise*
0 create outline with 7 corners*
4,1,7,$1,$2,$3,$4,$5,$6,$7,$8,$9,$10,$11,$12,$13,$14,$1,$2,$15*%
%AMOutline8P*
0 Free polygon, 8 corners , with rotation*
0 The origin of the aperture is its center*
0 number of corners: always 8*
0 $1 to $16 corner X, Y*
0 $17 Rotation angle, in degrees counterclockwise*
0 create outline with 8 corners*
4,1,8,$1,$2,$3,$4,$5,$6,$7,$8,$9,$10,$11,$12,$13,$14,$15,$16,$1,$2,$17*%
G04 Aperture macros list end*
%ADD10C,4.200000*%
%ADD11C,2.000000*%
%ADD12RoundRect,0.500000X-0.500000X0.500000X-0.500000X-0.500000X0.500000X-0.500000X0.500000X0.500000X0*%
%ADD13R,1.000000X0.800000*%
%ADD14C,0.900000*%
%ADD15R,0.700000X1.280000*%
%ADD16Outline5P,-0.350000X0.640000X0.350000X0.640000X0.350000X-0.640000X-0.070000X-0.640000X-0.350000X-0.360000X180.000000*%
%ADD17RoundRect,0.150000X-0.625000X0.150000X-0.625000X-0.150000X0.625000X-0.150000X0.625000X0.150000X0*%
%ADD18RoundRect,0.250000X-0.650000X0.350000X-0.650000X-0.350000X0.650000X-0.350000X0.650000X0.350000X0*%
%ADD19RotRect,1.425000X1.300000X322.000000*%
%ADD20RotRect,1.425000X1.300000X341.000000*%
%ADD21R,1.425000X1.300000*%
%ADD22C,3.000000*%
%ADD23C,5.100000*%
%ADD24R,2.000000X2.500000*%
%ADD25O,2.750000X1.800000*%
%ADD26C,1.600000*%
%ADD27RotRect,2.000000X2.500000X322.000000*%
%ADD28RotRect,2.000000X2.500000X341.000000*%
G04 APERTURE END LIST*
D10*
X141500000Y-67000000D03*
X141500000Y-112000000D03*
D11*
X198000000Y-78115970D03*
D12*
X194000000Y-78115970D03*
D13*
X204150000Y-55776046D03*
X204150000Y-57996046D03*
D14*
X202000000Y-56886046D03*
X199000000Y-56886046D03*
D13*
X196850000Y-55776046D03*
X196850000Y-57996046D03*
D15*
X202750000Y-58756046D03*
D16*
X201250000Y-58756046D03*
D15*
X198250000Y-58756046D03*
D17*
X206500000Y-80615970D03*
X206500000Y-79615970D03*
D18*
X202625000Y-78315970D03*
X202625000Y-81915970D03*
D19*
X206817138Y-132441960D03*
X204000000Y-130240970D03*
D20*
X186000000Y-120490970D03*
X182619772Y-119327064D03*
D21*
X181250000Y-96740970D03*
X177675000Y-96740970D03*
X162250000Y-115740970D03*
X158675000Y-115740970D03*
X105287500Y-69490970D03*
X101712500Y-69490970D03*
X105250000Y-88490970D03*
X101675000Y-88490970D03*
X162287500Y-94740970D03*
X158712500Y-94740970D03*
X181250000Y-58740970D03*
X177675000Y-58740970D03*
X86287500Y-88490970D03*
X82712500Y-88490970D03*
X181250000Y-77740970D03*
X177675000Y-77740970D03*
X143250000Y-51740970D03*
X139675000Y-51740970D03*
X143500000Y-70865970D03*
X139925000Y-70865970D03*
X162250000Y-56740970D03*
X158675000Y-56740970D03*
X124287500Y-56740970D03*
X120712500Y-56740970D03*
X86250000Y-107490970D03*
X82675000Y-107490970D03*
X162250000Y-75740970D03*
X158675000Y-75740970D03*
X124325000Y-75740970D03*
X120750000Y-75740970D03*
X124287500Y-94740970D03*
X120712500Y-94740970D03*
X105575000Y-107490970D03*
X102000000Y-107490970D03*
X86187500Y-69490970D03*
X82612500Y-69490970D03*
X143287500Y-89865970D03*
X139712500Y-89865970D03*
D22*
X80100000Y-80200000D03*
X81900000Y-81250000D03*
D23*
X84500000Y-75500000D03*
D22*
X87100000Y-81250000D03*
X88900000Y-80200000D03*
D24*
X76500000Y-80200000D03*
X90700000Y-81250000D03*
D22*
X118100000Y-67200000D03*
X119900000Y-68250000D03*
D23*
X122500000Y-62500000D03*
D22*
X125100000Y-68250000D03*
X126900000Y-67200000D03*
D24*
X114500000Y-67200000D03*
X128700000Y-68250000D03*
D22*
X118100000Y-86200000D03*
X119900000Y-87250000D03*
D23*
X122500000Y-81500000D03*
D22*
X125100000Y-87250000D03*
X126900000Y-86200000D03*
D24*
X114500000Y-86200000D03*
X128700000Y-87250000D03*
D10*
X94000000Y-112000000D03*
X94000000Y-72000000D03*
D22*
X99100000Y-80200000D03*
X100900000Y-81250000D03*
D23*
X103500000Y-75500000D03*
D22*
X106100000Y-81250000D03*
X107900000Y-80200000D03*
D24*
X95500000Y-80200000D03*
X109700000Y-81250000D03*
D10*
X197400000Y-121090970D03*
D22*
X80100000Y-99190970D03*
X81900000Y-100240970D03*
D23*
X84500000Y-94490970D03*
D22*
X87100000Y-100240970D03*
X88900000Y-99190970D03*
D24*
X76500000Y-99190970D03*
X90700000Y-100240970D03*
D25*
X208594960Y-58496046D03*
X208594960Y-61036046D03*
X208594960Y-63576046D03*
X208594960Y-66116046D03*
X208594960Y-68656046D03*
X208594960Y-71196046D03*
X208594960Y-73736046D03*
X192405040Y-73736046D03*
X192405040Y-71196046D03*
X192405040Y-68656046D03*
X192405040Y-66116046D03*
X192405040Y-63576046D03*
X192405040Y-61036046D03*
X192405040Y-58496046D03*
D26*
X196055000Y-65799046D03*
X204945000Y-65799046D03*
X196055000Y-63894046D03*
X204945000Y-63894046D03*
D24*
X185700000Y-70250000D03*
X171500000Y-69200000D03*
D22*
X183900000Y-69200000D03*
X182100000Y-70250000D03*
D23*
X179500000Y-64500000D03*
D22*
X176900000Y-70250000D03*
X175100000Y-69200000D03*
X156100000Y-105200000D03*
X157900000Y-106250000D03*
D23*
X160500000Y-100500000D03*
D22*
X163100000Y-106250000D03*
X164900000Y-105200000D03*
D24*
X152500000Y-105200000D03*
X166700000Y-106250000D03*
D22*
X156100000Y-86200000D03*
X157900000Y-87250000D03*
D23*
X160500000Y-81500000D03*
D22*
X163100000Y-87250000D03*
X164900000Y-86200000D03*
D24*
X152500000Y-86200000D03*
X166700000Y-87250000D03*
X109700000Y-100240970D03*
X95500000Y-99190970D03*
D22*
X107900000Y-99190970D03*
X106100000Y-100240970D03*
D23*
X103500000Y-94490970D03*
D22*
X100900000Y-100240970D03*
X99100000Y-99190970D03*
D24*
X147700000Y-63240970D03*
X133500000Y-62190970D03*
D22*
X145900000Y-62190970D03*
X144100000Y-63240970D03*
D23*
X141500000Y-57490970D03*
D22*
X138900000Y-63240970D03*
X137100000Y-62190970D03*
D24*
X166700000Y-127240970D03*
X152500000Y-126190970D03*
D22*
X164900000Y-126190970D03*
X163100000Y-127240970D03*
D23*
X160500000Y-121490970D03*
D22*
X157900000Y-127240970D03*
X156100000Y-126190970D03*
X137100000Y-100200000D03*
X138900000Y-101250000D03*
D23*
X141500000Y-95500000D03*
D22*
X144100000Y-101250000D03*
X145900000Y-100200000D03*
D24*
X133500000Y-100200000D03*
X147700000Y-101250000D03*
D22*
X99100000Y-118200000D03*
X100900000Y-119250000D03*
D23*
X103500000Y-113500000D03*
D22*
X106100000Y-119250000D03*
X107900000Y-118200000D03*
D24*
X95500000Y-118200000D03*
X109700000Y-119250000D03*
D22*
X80100000Y-118190970D03*
X81900000Y-119240970D03*
D23*
X84500000Y-113490970D03*
D22*
X87100000Y-119240970D03*
X88900000Y-118190970D03*
D24*
X76500000Y-118190970D03*
X90700000Y-119240970D03*
D22*
X137100000Y-81190970D03*
X138900000Y-82240970D03*
D23*
X141500000Y-76490970D03*
D22*
X144100000Y-82240970D03*
X145900000Y-81190970D03*
D24*
X133500000Y-81190970D03*
X147700000Y-82240970D03*
D22*
X175100000Y-88200000D03*
X176900000Y-89250000D03*
D23*
X179500000Y-83500000D03*
D22*
X182100000Y-89250000D03*
X183900000Y-88200000D03*
D24*
X171500000Y-88200000D03*
X185700000Y-89250000D03*
D22*
X118100000Y-105200000D03*
X119900000Y-106250000D03*
D23*
X122500000Y-100500000D03*
D22*
X125100000Y-106250000D03*
X126900000Y-105200000D03*
D24*
X114500000Y-105200000D03*
X128700000Y-106250000D03*
D22*
X195706282Y-136936700D03*
X196478257Y-138872302D03*
D23*
X202067138Y-135941960D03*
D22*
X200575912Y-142073742D03*
X202640777Y-142354521D03*
D27*
X192869443Y-134720318D03*
X203412752Y-144290123D03*
D22*
X176809548Y-128252408D03*
X178169634Y-129831225D03*
D23*
X182500000Y-125240970D03*
D22*
X183086332Y-131524179D03*
X185130111Y-131117407D03*
D28*
X173405681Y-127080362D03*
X186490199Y-132696225D03*
D24*
X185700000Y-108250000D03*
X171500000Y-107200000D03*
D22*
X183900000Y-107200000D03*
X182100000Y-108250000D03*
D23*
X179500000Y-102500000D03*
D22*
X176900000Y-108250000D03*
X175100000Y-107200000D03*
X156100000Y-67200000D03*
X157900000Y-68250000D03*
D23*
X160500000Y-62500000D03*
D22*
X163100000Y-68250000D03*
X164900000Y-67200000D03*
D24*
X152500000Y-67200000D03*
X166700000Y-68250000D03*
D10*
X184400000Y-73890970D03*
M02*
